<?xml version="1.0" encoding="UTF-8" standalone="no"?>
<svg width="60px" height="60px" viewBox="0 0 60 60" version="1.1" xmlns="http://www.w3.org/2000/svg" xmlns:xlink="http://www.w3.org/1999/xlink">
    <!-- Generator: Sketch 44.1 (41455) - http://www.bohemiancoding.com/sketch -->
    <title>Icon-rounded</title>
    <desc>Created with Sketch.</desc>
    <defs></defs>
    <g id="Drawing-tool" stroke="none" stroke-width="1" fill="none" fill-rule="evenodd">
        <g id="Icon-rounded" fill-rule="nonzero" fill="#333333">
            <path d="M22,16 C18.6862915,16 16,18.6862915 16,22 L16,38 C16,41.3137085 18.6862915,44 22,44 L38,44 C41.3137085,44 44,41.3137085 44,38 L44,22 C44,18.6862915 41.3137085,16 38,16 L22,16 Z M22,14 L38,14 C42.418278,14 46,17.581722 46,22 L46,38 C46,42.418278 42.418278,46 38,46 L22,46 C17.581722,46 14,42.418278 14,38 L14,22 C14,17.581722 17.581722,14 22,14 Z" id="Rectangle-22"></path>
        </g>
    </g>
</svg>
