<?xml version="1.0" encoding="UTF-8" standalone="no"?>
<svg width="60px" height="60px" viewBox="0 0 60 60" version="1.1" xmlns="http://www.w3.org/2000/svg" xmlns:xlink="http://www.w3.org/1999/xlink">
    <!-- Generator: Sketch 44.1 (41455) - http://www.bohemiancoding.com/sketch -->
    <title>Icon-star</title>
    <desc>Created with Sketch.</desc>
    <defs></defs>
    <g id="Drawing-tool" stroke="none" stroke-width="1" fill="none" fill-rule="evenodd">
        <g id="Icon-star" fill-rule="nonzero" fill="#333333">
            <path d="M30,16.0384615 L34.0442857,24.1602564 L34.4695238,25.0038462 L35.3742857,25.1384615 L44.4761905,26.4487179 L37.9347619,32.7307692 L37.2561905,33.3858974 L37.4190476,34.2833333 L38.9661905,43.2128205 L30.8866667,38.9948718 L30,38.6269231 L29.1585714,39.0666667 L21.0790476,43.2846154 L22.6261905,34.3551282 L22.7890476,33.4576923 L22.1104762,32.8025641 L15.5238095,26.4487179 L24.5714286,25.1474359 L25.4761905,25.0128205 L25.9014286,24.1692308 L30,16.0384615 L30,16.0384615 Z M30,12 L24.3361905,23.3705128 L11.6695238,25.1653846 L20.8347619,34.0230769 L18.672381,46.5692308 L30,40.6551282 L41.327619,46.5602564 L39.1652381,34.05 L48.3304762,25.1923077 L35.6638095,23.3974359 L30,12 Z" id="Shape"></path>
        </g>
    </g>
</svg>
