<svg xmlns="http://www.w3.org/2000/svg" viewBox="0 0 191.05 83.55"><defs><style>.cls-1{fill:#92989e;}.cls-2{fill:#3ccb93;}.cls-3{fill:#fff;}</style></defs><title>Student_answers_saved_illustration</title><g id="Layer_3" data-name="Layer 3"><g id="USB"><path class="cls-1" d="M24.56,42.14H15.83V31.94h8.73Zm-5.89-2.84h3V34.78h-3Z"/><path class="cls-1" d="M24.67,26H15.94V15.83h8.73Zm-5.89-2.84h3V18.67h-3Z"/><path class="cls-1" d="M133.93,0H49.13A11.91,11.91,0,0,0,37.59,9.09H.42V48.75H37.59a11.91,11.91,0,0,0,11.55,9.09h84.8c14.62,0,26.51-13,26.51-28.92S148.55,0,133.93,0ZM3.27,11.93h34v34h-34ZM133.93,55H49.13a9.06,9.06,0,0,1-9.05-9.05v-34a9.06,9.06,0,0,1,9.05-9.05h84.8c13.05,0,23.67,11.7,23.67,26.07S147,55,133.93,55Z"/></g><path class="cls-2" d="M71.05,70.27q-2.29,0-2.29,1.51a1.14,1.14,0,0,0,.57,1,14.67,14.67,0,0,0,2.66,1,7.34,7.34,0,0,1,2.93,1.52A3.59,3.59,0,0,1,75.76,78a4.21,4.21,0,0,1-1.37,3.4,5.34,5.34,0,0,1-3.57,1.15,19.87,19.87,0,0,1-4-.5l-.76-.15.29-2.25a35,35,0,0,0,4.3.38q2.23,0,2.23-1.85a1.23,1.23,0,0,0-.51-1,7.3,7.3,0,0,0-2-.82,8.35,8.35,0,0,1-3.43-1.65,3.5,3.5,0,0,1-1-2.66,3.86,3.86,0,0,1,1.3-3.19,5.53,5.53,0,0,1,3.57-1.05,23.7,23.7,0,0,1,3.95.42l.76.15-.23,2.29Q72.27,70.27,71.05,70.27Z"/><path class="cls-2" d="M85.88,75.06v4.37a1.68,1.68,0,0,0,.17.7.78.78,0,0,0,.53.28l-.08,2.12a8,8,0,0,1-1.71-.15,3.85,3.85,0,0,1-1.29-.59,7,7,0,0,1-3.09.73q-3.26,0-3.25-3.44A2.85,2.85,0,0,1,78,76.7a5.07,5.07,0,0,1,2.77-.83l2.25-.17v-.65a1.11,1.11,0,0,0-.29-.89,1.49,1.49,0,0,0-.95-.24l-3.95.17-.08-2a16.36,16.36,0,0,1,4.27-.61,4.18,4.18,0,0,1,2.92.84A3.54,3.54,0,0,1,85.88,75.06Zm-4.72,2.77A1.14,1.14,0,0,0,80,79.09q0,1.16,1,1.15A6.8,6.8,0,0,0,82.75,80l.32-.08V77.66Z"/><path class="cls-2" d="M87.45,71.78h2.94l1.68,8.11h.59l1.76-8.11h2.86l-2.52,10.5H90Z"/><path class="cls-2" d="M101.58,79.62a2.09,2.09,0,0,0,1.42.43q2,0,3.49-.13l.59-.06,0,2.08a18.66,18.66,0,0,1-4.37.59,4.29,4.29,0,0,1-3.44-1.26,6.3,6.3,0,0,1-1.07-4.1q0-5.65,4.64-5.65t4.58,4.75l-.21,2h-6.17A1.82,1.82,0,0,0,101.58,79.62Zm3.1-3.54a2.87,2.87,0,0,0-.4-1.75,2.2,2.2,0,0,0-2.8,0,2.9,2.9,0,0,0-.43,1.73Z"/><path class="cls-2" d="M118.38,67.58v14.7h-2.79v-.44a6.15,6.15,0,0,1-2.54.69,3.59,3.59,0,0,1-3.19-1.32A7.58,7.58,0,0,1,109,77,6.54,6.54,0,0,1,110,72.84a4,4,0,0,1,3.26-1.31,11.59,11.59,0,0,1,1.87.21l.4.08V67.58Zm-3.11,12.18.29-.06V74.17a11.68,11.68,0,0,0-2.06-.21q-1.7,0-1.7,3a5.21,5.21,0,0,0,.38,2.33,1.31,1.31,0,0,0,1.25.69A7.29,7.29,0,0,0,115.28,79.76Z"/><path class="cls-2" d="M121.39,77l-.27-9h3l-.29,9Zm-.27,5.25V78.9h3v3.38Z"/><g id="Symbols"><g id="icon-checkmark"><g id="Group"><circle id="Oval-2" class="cls-2" cx="95.34" cy="29.11" r="18.62"/><polygon id="Page-1" class="cls-3" points="103.5 20.43 92.76 31.16 87.18 25.57 84.17 28.59 92.76 37.19 106.51 23.44 106.06 22.99 103.5 20.43"/></g></g></g></g></svg>