<?xml version="1.0" encoding="UTF-8"?>
<svg  fill="#fff" width="40px" height="40px" viewBox="0 0 40 40" version="1.1" xmlns="http://www.w3.org/2000/svg" xmlns:xlink="http://www.w3.org/1999/xlink">
    <!-- Generator: Sketch 53.2 (72643) - https://sketchapp.com -->
    <title>Icon/ Music/ Menu</title>
    <desc>Created with Sketch.</desc>
    <g id="Icon/-Music/-Menu" stroke="none" stroke-width="1" fill="none" fill-rule="evenodd">
        <path d="M6,3 C4.34314575,3 3,4.34314575 3,6 L3,34 C3,35.6568542 4.34314575,37 6,37 L34,37 C35.6568542,37 37,35.6568542 37,34 L37,6 C37,4.34314575 35.6568542,3 34,3 L6,3 Z M6,0 L34,0 C37.3137085,-6.08718376e-16 40,2.6862915 40,6 L40,34 C40,37.3137085 37.3137085,40 34,40 L6,40 C2.6862915,40 4.05812251e-16,37.3137085 0,34 L0,6 C-4.05812251e-16,2.6862915 2.6862915,6.08718376e-16 6,0 Z M9,14 C7.8954305,14 7,13.1045695 7,12 C7,10.8954305 7.8954305,10 9,10 C10.1045695,10 11,10.8954305 11,12 C11,13.1045695 10.1045695,14 9,14 Z M14.53125,13 C13.7028229,13 13.03125,12.3284271 13.03125,11.5 C13.03125,10.6715729 13.7028229,10 14.53125,10 L30.2311401,10 C31.0595673,10 31.7311401,10.6715729 31.7311401,11.5 C31.7311401,12.3284271 31.0595673,13 30.2311401,13 L14.53125,13 Z M9,22 C7.8954305,22 7,21.1045695 7,20 C7,18.8954305 7.8954305,18 9,18 C10.1045695,18 11,18.8954305 11,20 C11,21.1045695 10.1045695,22 9,22 Z M14.53125,29 C13.7028229,29 13.03125,28.3284271 13.03125,27.5 C13.03125,26.6715729 13.7028229,26 14.53125,26 L30.2311401,26 C31.0595673,26 31.7311401,26.6715729 31.7311401,27.5 C31.7311401,28.3284271 31.0595673,29 30.2311401,29 L14.53125,29 Z M9,30 C7.8954305,30 7,29.1045695 7,28 C7,26.8954305 7.8954305,26 9,26 C10.1045695,26 11,26.8954305 11,28 C11,29.1045695 10.1045695,30 9,30 Z M14.53125,21 C13.7028229,21 13.03125,20.3284271 13.03125,19.5 C13.03125,18.6715729 13.7028229,18 14.53125,18 L30.2311401,18 C31.0595673,18 31.7311401,18.6715729 31.7311401,19.5 C31.7311401,20.3284271 31.0595673,21 30.2311401,21 L14.53125,21 Z" id="Line" fill="#D8D8D8" fill-rule="nonzero"></path>
    </g>
</svg>
