<?xml version="1.0" encoding="UTF-8"?>
<svg width="17px" height="14px" viewBox="0 0 17 14" version="1.1" xmlns="http://www.w3.org/2000/svg" xmlns:xlink="http://www.w3.org/1999/xlink">
    <!-- Generator: Sketch 53.2 (72643) - https://sketchapp.com -->
    <title>Icon/ /Music/ Volume</title>
    <desc>Created with Sketch.</desc>
    <g id="Icon/-/Music/-Volume" stroke="none" stroke-width="1" fill="none" fill-rule="evenodd">
        <path d="M1.57894737,9.5747296 L5.4592664,9.5747296 C5.63458835,9.5747296 5.80492253,9.63221216 5.94340793,9.73811252 L8.42105263,11.6327776 L8.42105263,2.48185258 L5.97625988,4.56844128 C5.83273147,4.69094031 5.6491812,4.75837228 5.4592664,4.75837228 L1.57894737,4.75837228 L1.57894737,9.5747296 Z M0.789473684,11.1299578 C0.353459408,11.1299578 0,10.7818081 0,10.3523437 L0,3.9807582 C0,3.5512938 0.353459408,3.20314412 0.789473684,3.20314412 L5.16480932,3.20314412 L8.69353283,0.191439104 C9.20478676,-0.244907359 10,0.112800338 10,0.77912218 L10,13.2209475 C10,13.8677208 9.24505746,14.2318098 8.72638478,13.8351786 L5.18877995,11.1299578 L0.789473684,11.1299578 Z" id="Line-3" fill="#D8D8D8" fill-rule="nonzero"></path>
        <path d="M11.0734235,4.26083031 C10.9293709,4.02523859 11.003578,3.71747606 11.2391697,3.57342346 C11.4747614,3.42937085 11.7825239,3.50357797 11.9265765,3.73916969 C12.3856845,4.49002062 12.6114502,5.4130954 12.6114502,6.5 C12.6114502,7.5869046 12.3856845,8.50997938 11.9265765,9.26083031 C11.7825239,9.49642203 11.4747614,9.57062915 11.2391697,9.42657654 C11.003578,9.28252394 10.9293709,8.97476141 11.0734235,8.73916969 C11.4295824,8.15668728 11.6114502,7.4130954 11.6114502,6.5 C11.6114502,5.5869046 11.4295824,4.84331272 11.0734235,4.26083031 Z" id="Line-4" stroke="#D8D8D8" stroke-width="0.5" fill="#D8D8D8" fill-rule="nonzero"></path>
        <path d="M13.5880195,1.86743052 C13.4315444,1.63989995 13.4891462,1.32860186 13.7166768,1.17212678 C13.9442074,1.0156517 14.2555055,1.07325355 14.4119805,1.30078412 C15.4682508,2.8367077 16,4.48346213 16,6.22940159 C16,8.40495846 15.4672357,10.1808393 14.3921063,11.5396477 C14.2207621,11.756202 13.9063082,11.7928521 13.6897539,11.6215079 C13.4731996,11.4501637 13.4365495,11.1357098 13.6078937,10.9191555 C14.5327643,9.75025263 15,8.19280015 15,6.22940159 C15,4.68981731 14.5317492,3.2397089 13.5880195,1.86743052 Z" id="Line-4" stroke="#D8D8D8" stroke-width="0.5" fill="#D8D8D8" fill-rule="nonzero"></path>
    </g>
</svg>