<?xml version="1.0" encoding="UTF-8"?>
<svg width="17px" height="14px" viewBox="0 0 17 14" version="1.1" xmlns="http://www.w3.org/2000/svg" xmlns:xlink="http://www.w3.org/1999/xlink">
    <!-- Generator: Sketch 53.2 (72643) - https://sketchapp.com -->
    <title>Icon/ /Music/ Mute</title>
    <desc>Created with Sketch.</desc>
    <g id="Icon/-/Music/-Mute" stroke="none" stroke-width="1" fill="none" fill-rule="evenodd">
        <path d="M1.57894737,9.5747296 L5.4592664,9.5747296 C5.63458835,9.5747296 5.80492253,9.63221216 5.94340793,9.73811252 L8.42105263,11.6327776 L8.42105263,2.48185258 L5.97625988,4.56844128 C5.83273147,4.69094031 5.6491812,4.75837228 5.4592664,4.75837228 L1.57894737,4.75837228 L1.57894737,9.5747296 Z M0.789473684,11.1299578 C0.353459408,11.1299578 0,10.7818081 0,10.3523437 L0,3.9807582 C0,3.5512938 0.353459408,3.20314412 0.789473684,3.20314412 L5.16480932,3.20314412 L8.69353283,0.191439104 C9.20478676,-0.244907359 10,0.112800338 10,0.77912218 L10,13.2209475 C10,13.8677208 9.24505746,14.2318098 8.72638478,13.8351786 L5.18877995,11.1299578 L0.789473684,11.1299578 Z" id="Line-3" fill="#D8D8D8" fill-rule="nonzero"></path>
        <path d="M12.7878169,7 L11.2510513,5.46323438 C10.9163162,5.12849928 10.9163162,4.58578644 11.2510513,4.25105133 C11.5857864,3.91631622 12.1284993,3.91631622 12.4632344,4.25105133 L14,5.78781695 L15.5367656,4.25105133 C15.8715007,3.91631622 16.4142136,3.91631622 16.7489487,4.25105133 C17.0836838,4.58578644 17.0836838,5.12849928 16.7489487,5.46323438 L15.2121831,7 L16.7489487,8.53676562 C17.0836838,8.87150072 17.0836838,9.41421356 16.7489487,9.74894867 C16.4142136,10.0836838 15.8715007,10.0836838 15.5367656,9.74894867 L14,8.21218305 L12.4632344,9.74894867 C12.1284993,10.0836838 11.5857864,10.0836838 11.2510513,9.74894867 C10.9163162,9.41421356 10.9163162,8.87150072 11.2510513,8.53676562 L12.7878169,7 Z" id="Line-2" fill="#D8D8D8" fill-rule="nonzero"></path>
    </g>
</svg>