<?xml version="1.0" encoding="UTF-8"?>
<svg width="16px" height="17px" viewBox="0 0 16 17" version="1.1" xmlns="http://www.w3.org/2000/svg" xmlns:xlink="http://www.w3.org/1999/xlink">
    <!-- Generator: Sketch 53.2 (72643) - https://sketchapp.com -->
    <title>Icon/ Music/ Next</title>
    <desc>Created with Sketch.</desc>
    <g id="Icon/-Music/-Next" stroke="none" stroke-width="1" fill="none" fill-rule="evenodd">
        <path d="M4,7.53607971 C4.03853091,7.49821788 4.08064956,7.46298489 4.1262703,7.43087354 L14.4244124,0.182259844 C14.5929145,0.0636553124 14.7939418,-5.24025268e-14 15,-5.24302823e-14 C15.5522847,-5.24580379e-14 16,0.44771525 16,1 L16,15.4972274 C16,15.7032856 15.9363447,15.9043129 15.8177402,16.072815 C15.4998519,16.5244404 14.8760379,16.6328558 14.4244124,16.3149676 L4.1262703,9.06635386 C4.08127324,9.03468151 4.03905158,8.9994089 4,8.96093072 L4,15.248687 C4,15.8009717 3.55228475,16.248687 3,16.248687 L1,16.248687 C0.44771525,16.248687 6.76353751e-17,15.8009717 0,15.248687 L0,1.24868699 C-6.76353751e-17,0.696402237 0.44771525,0.248686987 1,0.248686987 L3,0.248686987 C3.55228475,0.248686987 4,0.696402237 4,1.24868699 L4,7.53607971 Z" id="Mask" fill="#D8D8D8" transform="translate(8.000000, 8.248656) scale(-1, 1) translate(-8.000000, -8.248656) "></path>
    </g>
</svg>