<?xml version="1.0" encoding="UTF-8"?>
<svg width="40px" height="40px" viewBox="0 0 40 40" version="1.1" xmlns="http://www.w3.org/2000/svg" xmlns:xlink="http://www.w3.org/1999/xlink">
    <!-- Generator: Sketch 53.2 (72643) - https://sketchapp.com -->
    <title>Icon/ Music/ Pause</title>
    <desc>Created with Sketch.</desc>
    <g id="Icon/-Music/-Pause" stroke="none" stroke-width="1" fill="none" fill-rule="evenodd">
        <g id="Group" transform="translate(5.000000, 4.000000)" fill="#D8D8D8" fill-rule="nonzero">
            <path d="M2,0 L10,0 C11.1045695,-2.02906125e-16 12,0.8954305 12,2 L12,30 C12,31.1045695 11.1045695,32 10,32 L2,32 C0.8954305,32 1.3527075e-16,31.1045695 0,30 L0,2 C-1.3527075e-16,0.8954305 0.8954305,2.02906125e-16 2,0 Z M20,0 L28,0 C29.1045695,-2.02906125e-16 30,0.8954305 30,2 L30,30 C30,31.1045695 29.1045695,32 28,32 L20,32 C18.8954305,32 18,31.1045695 18,30 L18,2 C18,0.8954305 18.8954305,2.02906125e-16 20,0 Z" id="Combined-Shape"></path>
        </g>
    </g>
</svg>