<svg xmlns="http://www.w3.org/2000/svg" viewBox="0 0 319.12 175.91"><defs><style>.cls-1{fill:#92989e;}.cls-2{fill:#ddd;}.cls-3{fill:#fdc4c5;}.cls-4{fill:#fff;}</style></defs><title>Demo_exam_illustration</title><g id="Layer_3" data-name="Layer 3"><g id="Laptop"><path class="cls-1" d="M278.32,153.89H40.8V8.07H278.32ZM43.65,151H275.47V10.92H43.65Z"/><path class="cls-1" d="M285.63,162.22H33.48V9.53A9.74,9.74,0,0,1,43.21-.2H275.9a9.74,9.74,0,0,1,9.73,9.73ZM36.33,159.38H282.79V9.53a6.89,6.89,0,0,0-6.89-6.89H43.21a6.89,6.89,0,0,0-6.89,6.89Z"/><path class="cls-1" d="M309.31,175.7H9.8a7.62,7.62,0,0,1-5.72-2.4C.14,169.18.45,161.08.46,160.74l.06-1.36H318.59l.06,1.36c0,.34.33,8.44-3.62,12.57A7.62,7.62,0,0,1,309.31,175.7Zm-306-13.48c.08,2.25.55,6.74,2.83,9.12a4.82,4.82,0,0,0,3.66,1.51H309.31a4.82,4.82,0,0,0,3.66-1.51c2.28-2.38,2.74-6.87,2.83-9.12Z"/><path class="cls-1" d="M183,163.59s0,4.84-3.85,4.84H140c-3.85,0-3.85-4.84-3.85-4.84Z"/></g><path class="cls-2" d="M166.48,75.33l-1,2.49-.58,1.55,1.25,1.08,32.41,28-14.17,11L160.48,98.76,158,96.63l-1.21,3-9.68,24.26-15.89-3.21L144.66,87.1l.5-1.25,21.32-10.53m4.4-4.77L141.28,85.21l1.19,1.06-14.42,36.18,20.52,4.14L159,100.52l25.33,22,17.91-13.94L167.66,78.66l3.23-8.1Z"/><polygon class="cls-2" points="181.47 44.01 161.03 39.88 151.22 64.44 134.76 50.21 116.93 64.1 141.49 85.38 170.54 71.44 181.47 44.01"/><circle class="cls-2" cx="188.51" cy="67.39" r="7.47"/><polygon class="cls-3" points="43.65 89.55 43.65 135.46 275.47 82.49 275.47 36.59 43.65 89.55"/><path class="cls-4" d="M124.05,105.12l-6.67,1.54-4.58-19.8,6.67-1.54a14.32,14.32,0,0,1,4.35-.44,5.17,5.17,0,0,1,3,1.18,7.55,7.55,0,0,1,1.94,2.62A22.72,22.72,0,0,1,130.1,93a26.16,26.16,0,0,1,.71,4.52,8.84,8.84,0,0,1-.48,3.43,5.17,5.17,0,0,1-2.11,2.61A12.89,12.89,0,0,1,124.05,105.12Zm2.4-8.84q-.16-.94-.54-2.59a24.44,24.44,0,0,0-.73-2.61,5.15,5.15,0,0,0-1-1.68,2.36,2.36,0,0,0-1.55-.82,7.28,7.28,0,0,0-2.39.23l-2.65.61,3,12.81,2.65-.61a4.17,4.17,0,0,0,2.92-1.84A5.69,5.69,0,0,0,126.46,96.28Z"/><path class="cls-4" d="M138.15,101.86l-4.59-19.8,12.81-3,.81,3.49-8.79,2,1.07,4.63,7-1.63.8,3.44-7,1.63,1.1,4.75,8.79-2,.81,3.49Z"/><path class="cls-4" d="M156.47,97.62l-4.58-19.8,6.84-1.58,6.84,13.64.15-15.25L172.56,73l4.58,19.8-4,.93-3.55-15.32-.44.1-.53,15.34-4,.93-7.22-13.55-.44.1,3.55,15.32Z"/><path class="cls-4" d="M196.85,86q-1.28,2.89-5.79,3.93t-6.93-1q-2.42-2-3.63-7.28t0-8.22q1.26-3,5.77-4t7,1.08q2.44,2.12,3.65,7.36T196.85,86Zm-10.17-.35a4.26,4.26,0,0,0,6.44-1.49,11.43,11.43,0,0,0-.33-5.32,12,12,0,0,0-2.08-5,4.07,4.07,0,0,0-6.41,1.48,12,12,0,0,0,.34,5.43A11.42,11.42,0,0,0,186.67,85.7Z"/></g></svg>