<?xml version="1.0" encoding="utf-8"?>
<!-- Generator: Adobe Illustrator 20.1.0, SVG Export Plug-In . SVG Version: 6.00 Build 0)  -->
<svg version="1.1" id="Logo" xmlns="http://www.w3.org/2000/svg" xmlns:xlink="http://www.w3.org/1999/xlink" x="0px" y="0px"
	 viewBox="0 0 477.4 112" style="enable-background:new 0 0 477.4 112;" xml:space="preserve">
<style type="text/css">
	.st0{fill:#A7015F;}
	.st1{fill:#DC2473;}
	.st2{fill:#333333;}
</style>
<polygon points="49.5,54.9 49.2,54.6 49,55.1 49.4,55.4 "/>
<path class="st0" d="M14.4,106.7l26.5,5.3l13.4-33.7L87,106.7l23.1-18L65.5,50.1l4.2-10.5L31.5,58.6l1.6,1.4L14.4,106.7z M49.2,54.6
	l0.3,0.3l-0.2,0.4L49,55.1L49.2,54.6z"/>
<polygon class="st1" points="83.4,5.3 57,0 44.3,31.7 23,13.3 0,31.3 31.7,58.8 69.2,40.8 "/>
<circle class="st1" cx="92.5" cy="35.5" r="9.6"/>
<g>
	<path class="st2" d="M167.2,83.6h-19.2V26.7h19.2c4.9,0,9,0.5,12.1,1.5c3.2,1,5.6,2.7,7.4,5.1c1.8,2.4,3,5.2,3.6,8.4
		c0.7,3.2,1,7.4,1,12.5c0,5.1-0.3,9.4-0.9,12.8c-0.6,3.4-1.8,6.4-3.5,9c-1.7,2.7-4.2,4.6-7.4,5.8C176.4,83,172.3,83.6,167.2,83.6z
		 M179.4,61c0.1-1.8,0.2-4.3,0.2-7.4c0-3.2-0.1-5.7-0.3-7.6c-0.2-1.9-0.8-3.6-1.6-5.2c-0.8-1.6-2.1-2.6-3.7-3.2
		c-1.6-0.6-3.9-0.9-6.7-0.9h-7.6v36.8h7.6c4.2,0,7.2-1.1,9.1-3.2C178,68.6,179,65.5,179.4,61z"/>
	<path class="st2" d="M200.5,36.4V25h11.2v11.4H200.5z M200.5,83.6V41.7h11.2v41.8H200.5z"/>
	<path class="st2" d="M260,88.8c0,4.8-1.8,8.3-5.5,10.6c-3.7,2.3-8.7,3.4-14.9,3.4c-6.3,0-11.1-0.8-14.5-2.5
		c-3.4-1.7-5.1-4.7-5.1-9.1c0-3.5,2-6.8,6-10c-2.1-1.4-3.1-3.5-3.1-6.4c0-1.1,0.8-3,2.5-5.5l0.8-1.2c-3.8-2.7-5.7-6.8-5.7-12.1
		c0-5.3,1.6-9.2,4.8-11.6c3.2-2.4,7.5-3.6,12.8-3.6c2.4,0,4.8,0.3,7.1,0.8l1.3,0.3l13.5-0.4v9l-6.3-0.5c1.2,1.9,1.8,3.8,1.8,5.7
		c0,5.6-1.4,9.4-4.3,11.5s-7.3,3.2-13.4,3.2c-1.3,0-2.4-0.1-3.4-0.3c-0.6,1.5-0.8,2.6-0.8,3.6s0.5,1.5,1.4,1.9
		c0.9,0.3,3.2,0.5,6.7,0.6c7,0.1,11.8,1,14.4,2.8C258.7,80.7,260,84,260,88.8z M231,90c0,2.4,2.9,3.6,8.8,3.6c5.9,0,8.8-1.4,8.8-4.2
		c0-1.5-0.5-2.5-1.5-2.9c-1-0.4-3.1-0.7-6.4-0.7l-7.5-0.6C231.8,86.7,231,88.3,231,90z M231.7,55.7c0,4.1,2.1,6.2,6.4,6.2
		s6.4-2.1,6.4-6.2c0-4.1-2.1-6.2-6.4-6.2S231.7,51.6,231.7,55.7z"/>
	<path class="st2" d="M266.7,36.4V25h11.2v11.4H266.7z M266.7,83.6V41.7h11.2v41.8H266.7z"/>
	<path class="st2" d="M289.3,83.6V26.7h36.8v10h-25.3V50h20.3v9.9h-20.3v13.6h25.3v10H289.3z"/>
	<path class="st2" d="M330.7,41.7h12l6.7,13l6.8-13h12l-11.9,20.5l11.9,21.3h-12l-6.8-12.8l-6.7,12.8h-12l11.5-21L330.7,41.7z"/>
	<path class="st2" d="M406.4,54.8v17.4c0.1,1.3,0.3,2.3,0.7,2.8c0.3,0.5,1,0.9,2.1,1.1l-0.3,8.5c-2.8,0-5.1-0.2-6.8-0.6
		c-1.7-0.4-3.4-1.2-5.1-2.3c-4,2-8.1,2.9-12.3,2.9c-8.6,0-13-4.6-13-13.7c0-4.5,1.2-7.6,3.6-9.5c2.4-1.9,6.1-3,11-3.3l9-0.7v-2.6
		c0-1.7-0.4-2.9-1.2-3.6c-0.8-0.6-2-1-3.8-1l-15.7,0.7l-0.3-7.8c6-1.6,11.6-2.4,17-2.4c5.4,0,9.3,1.1,11.6,3.3
		C405.2,46.3,406.4,49.9,406.4,54.8z M387.6,65.8c-3.1,0.3-4.7,2-4.7,5c0,3.1,1.4,4.6,4.1,4.6c2.1,0,4.4-0.3,6.9-1l1.3-0.3v-9
		L387.6,65.8z"/>
	<path class="st2" d="M428.3,83.6h-11.2V41.7h11.1v2.3c3.8-2.2,7.1-3.3,9.9-3.3c4.5,0,8,1.3,10.5,3.9c5.1-2.6,9.8-3.9,14.1-3.9
		c5.5,0,9.4,1.6,11.5,4.8c2.1,3.2,3.2,8.3,3.2,15.4v22.7h-11.2V61.2c0-3.6-0.4-6.2-1.2-7.9c-0.8-1.7-2.3-2.6-4.7-2.6
		c-1.8,0-4,0.4-6.5,1.2l-1.3,0.4c0.2,4.2,0.3,7.4,0.3,9.5v21.7h-11.2V62c0-4.1-0.4-7-1.1-8.7c-0.7-1.7-2.3-2.6-4.8-2.6
		c-2.2,0-4.3,0.4-6.4,1.2l-1,0.3V83.6z"/>
</g>
</svg>
