<svg xmlns="http://www.w3.org/2000/svg" viewBox="0 0 533.58 175.91"><defs><style>.cls-1{fill:#f6f6f6}.cls-2{fill:#92989e}.cls-3{fill:#ddd}.cls-4{fill:#3ccb93}.cls-5{fill:#fff}</style></defs><title>Save_student_answer_file_illustration</title><g id="Layer_3" data-name="Layer 3"><path class="cls-1" d="M166.93 78.49L166 81l-.58 1.55 1.25 1.08 32.41 28-14.17 11-23.94-20.75-2.47-2.14-1.21 3-9.68 24.26-15.89-3.21 13.42-33.62.5-1.25 21.32-10.53m4.4-4.77l-29.62 14.75 1.19 1.06-14.42 36.18 20.49 4.14 10.38-26.07 25.33 22 17.91-13.94-34.51-29.92 3.23-8.1z"/><path class="cls-1" d="M181.93 47.16l-20.44-4.12-9.81 24.56-16.46-14.23-17.84 13.89 24.56 21.28L171 74.6l10.93-27.44z"/><circle class="cls-1" cx="188.96" cy="70.55" r="7.47"/><g id="USB"><path class="cls-2" d="M397.25 102.5h-8.73V92.3h8.73zm-5.89-2.84h3v-4.52h-3zM397.35 86.39h-8.73v-10.2h8.73zm-5.89-2.84h3V79h-3z"/><path class="cls-2" d="M506.62 60.36h-84.8a11.91 11.91 0 0 0-11.55 9.09h-37.16v39.66h37.16a11.91 11.91 0 0 0 11.55 9.09h84.8c14.62 0 26.51-13 26.51-28.92s-11.9-28.92-26.51-28.92zM375.95 72.29h34v34h-34zm130.67 43.06h-84.8a9.06 9.06 0 0 1-9.05-9.05v-34a9.06 9.06 0 0 1 9.05-9.05h84.8c13.05 0 23.67 11.7 23.67 26.07s-10.62 26.03-23.67 26.03z"/><path class="cls-3" d="M448.51 75.07v7.68h7.68v-2.12h6.94l3.58 6.89h-20.88v-3.47l-9 5.18 9 5.18V91h31L473 96.84h-6.44a4.14 4.14 0 1 0 0 3.44h8.28L481 91h11.8a5.17 5.17 0 1 0 0-3.44h-22.21l-5.37-10.33h-9v-2.16z"/></g><g id="Laptop"><path class="cls-2" d="M278.32 154.09H40.8V8.28h237.52zm-234.67-2.84h231.82V11.12H43.65z"/><path class="cls-2" d="M285.63 162.43H33.48V9.73A9.74 9.74 0 0 1 43.21 0H275.9a9.74 9.74 0 0 1 9.73 9.73zm-249.3-2.85h246.46V9.73a6.89 6.89 0 0 0-6.89-6.89H43.21a6.89 6.89 0 0 0-6.89 6.89z"/><path class="cls-2" d="M309.31 175.91H9.8a7.62 7.62 0 0 1-5.72-2.4C.14 169.38.45 161.29.46 160.94l.06-1.36h318.07l.06 1.36c0 .34.33 8.44-3.62 12.57a7.62 7.62 0 0 1-5.72 2.4zm-306-13.48c.08 2.25.55 6.74 2.83 9.12a4.82 4.82 0 0 0 3.66 1.51h299.51a4.82 4.82 0 0 0 3.66-1.51c2.28-2.38 2.74-6.87 2.83-9.12z"/><path class="cls-2" d="M183 163.8s0 4.84-3.85 4.84H140c-3.85 0-3.85-4.84-3.85-4.84z"/></g><path class="cls-4" d="M72.24 93.89a18.93 18.93 0 0 1-3.45-.39l-1.09-.21.11-3.29.54.07a33.23 33.23 0 0 0 3.56.33 2.73 2.73 0 0 0 1.15-.14c.1-.05.11-.09.11-.16s0-.09-.11-.14a9.07 9.07 0 0 0-1.88-.42 5.62 5.62 0 0 1-2.66-1 3.32 3.32 0 0 1-1-2.71 3.44 3.44 0 0 1 1.33-2.92 5.25 5.25 0 0 1 3.22-1 19.94 19.94 0 0 1 3.47.41l1.11.2-.06 3.31-.55-.07a33.39 33.39 0 0 0-3.58-.33 2.64 2.64 0 0 0-1.08.11s-.07 0-.07.17 0 .07.09.1a14.51 14.51 0 0 0 2 .44 5 5 0 0 1 2.66 1.13A3.51 3.51 0 0 1 77 90c0 1.77-.86 3.89-4.76 3.89z"/><path class="cls-5" d="M72.09 82.41a19.64 19.64 0 0 1 3.38.4l.69.13v2.33a33.52 33.52 0 0 0-3.64-.34 3 3 0 0 0-1.34.19.65.65 0 0 0-.3.6.57.57 0 0 0 .41.57 15.89 15.89 0 0 0 2.1.46 4.62 4.62 0 0 1 2.4 1 3 3 0 0 1 .67 2.25q0 3.4-4.22 3.4a18.33 18.33 0 0 1-3.36-.4l-.67-.13.08-2.35a33.44 33.44 0 0 0 3.62.34 3.25 3.25 0 0 0 1.38-.2.64.64 0 0 0 .37-.6.62.62 0 0 0-.39-.59 10 10 0 0 0-2-.46 5.2 5.2 0 0 1-2.43-.92 2.86 2.86 0 0 1-.8-2.32 3 3 0 0 1 1.13-2.52 4.74 4.74 0 0 1 2.92-.85m0-1a5.74 5.74 0 0 0-3.52 1A3.93 3.93 0 0 0 67 85.78a3.79 3.79 0 0 0 1.16 3.1 4.91 4.91 0 0 0 1.64.84l-1.42-.17-1.09-.14v1.1l-.08 2.35v.86l.85.16.67.13a19.38 19.38 0 0 0 3.54.4c4.54 0 5.22-2.76 5.22-4.4a4 4 0 0 0-1-3 4.21 4.21 0 0 0-1.53-.9l1.08.13 1.11.14v-4.3l-.8-.08-.69-.13a20.35 20.35 0 0 0-3.56-.42z"/><path class="cls-4" d="M82.19 93.89a3.67 3.67 0 0 1-3-1 5.55 5.55 0 0 1-.81-3.46v-3.9h-1.2v-3.39h1.24v-2.92h3.81v2.92h2.58v3.39h-2.58v4.65a.22.22 0 0 0 .08.14.47.47 0 0 0 .28.05l2.07-.05.17 3.16-.41.09a11 11 0 0 1-2.23.32z"/><path class="cls-5" d="M81.73 79.72v2.92h2.58V85h-2.58V90.2a.72.72 0 0 0 .23.45.87.87 0 0 0 .62.19h1.6l.13 2.25a10.68 10.68 0 0 1-2.14.31 3.21 3.21 0 0 1-2.58-.85 5.18 5.18 0 0 1-.69-3.14V85h-1.22v-2.36h1.24v-2.92h2.81m1-1h-4.81v2.92h-1.24V86h1.24v3.4a6 6 0 0 0 .92 3.77 4.13 4.13 0 0 0 3.36 1.22 11.47 11.47 0 0 0 2.36-.34l.83-.19v-.85l-.12-2.25-.05-1h-2.44V86h2.58v-4.36h-2.63v-2.92z"/><path class="cls-4" d="M89.73 93.89a3.67 3.67 0 0 1-3.36-1.44 8.35 8.35 0 0 1-.83-4.31v-6h3.81v6a5.31 5.31 0 0 0 .21 1.92c.08.18.34.27.76.27a4.66 4.66 0 0 0 1.52-.24v-8h3.81v11.5h-3.79v-.28a5.2 5.2 0 0 1-2.13.58z"/><path class="cls-5" d="M95.15 82.64v10.5h-2.79v-.59a5.61 5.61 0 0 1-2.62.84 3.2 3.2 0 0 1-2.94-1.21 8 8 0 0 1-.76-4v-5.5h2.81v5.54a6 6 0 0 0 .25 2.12q.25.57 1.22.57a5.11 5.11 0 0 0 1.74-.29l.27-.08v-7.9h2.81m1-1h-4.8v8.11a4.25 4.25 0 0 1-1 .12 1.21 1.21 0 0 1-.33 0 6.11 6.11 0 0 1-.14-1.65v-6.58H85v6.5a8.79 8.79 0 0 0 .91 4.57c.7 1.11 2 1.68 3.79 1.68a5.06 5.06 0 0 0 1.63-.29h4.79V81.64z"/><path class="cls-4" d="M101.34 93.89a4.06 4.06 0 0 1-3.6-1.54 8 8 0 0 1-1-4.47 6.93 6.93 0 0 1 1.2-4.5 4.47 4.47 0 0 1 3.65-1.49 11.23 11.23 0 0 1 1.77.19v-4.14h3.81v15.7h-3.79v-.18a5.8 5.8 0 0 1-2.04.43zm.46-8.57c-.3 0-1.2 0-1.2 2.52a4.63 4.63 0 0 0 .32 2.09.82.82 0 0 0 .81.43 6.77 6.77 0 0 0 1.63-.22v-4.7a10.41 10.41 0 0 0-1.55-.12z"/><path class="cls-5" d="M106.68 78.44v14.7h-2.79v-.44a6.15 6.15 0 0 1-2.54.69 3.59 3.59 0 0 1-3.19-1.32 7.59 7.59 0 0 1-.9-4.19 6.53 6.53 0 0 1 1.08-4.18 4 4 0 0 1 3.26-1.31 11.57 11.57 0 0 1 1.87.21l.4.08v-4.24h2.81m-4.95 12.43a7.28 7.28 0 0 0 1.84-.25l.29-.06V85a11.7 11.7 0 0 0-2.06-.21q-1.7 0-1.7 3a5.2 5.2 0 0 0 .38 2.33 1.31 1.31 0 0 0 1.25.69m5.95-13.43h-4.81v4.05a9.49 9.49 0 0 0-1.27-.1 5 5 0 0 0-4 1.68 7.38 7.38 0 0 0-1.31 4.81 8.42 8.42 0 0 0 1.08 4.75 4.53 4.53 0 0 0 4 1.76 5.58 5.58 0 0 0 1.59-.25h4.74V77.44zm-5.95 12.43c-.28 0-.32-.08-.37-.17a4.2 4.2 0 0 1-.26-1.85c0-.76.09-2 .7-2a9 9 0 0 1 1.06.07v3.86a5.92 5.92 0 0 1-1.13.12z"/><path class="cls-4" d="M113.27 93.89a4.77 4.77 0 0 1-3.82-1.44 6.68 6.68 0 0 1-1.19-4.45c0-5.08 2.8-6.15 5.14-6.15 3.32 0 5.08 1.81 5.08 5.25l-.26 2.45h-6.06a1 1 0 0 0 .28.52 1.63 1.63 0 0 0 1.09.31c1.28 0 2.44 0 3.45-.12l1.12-.12.06 3-.39.09a19.26 19.26 0 0 1-4.5.66zm1.41-7.45a1.76 1.76 0 0 0-.27-.94 1.35 1.35 0 0 0-1-.31 1.26 1.26 0 0 0-1 .33 1.79 1.79 0 0 0-.29.92z"/><path class="cls-5" d="M113.4 82.39q4.58 0 4.58 4.75l-.21 2h-6.17a1.81 1.81 0 0 0 .52 1.4 2.09 2.09 0 0 0 1.42.43q2 0 3.49-.13l.59-.06v2.08a18.67 18.67 0 0 1-4.37.59 4.28 4.28 0 0 1-3.44-1.26 6.29 6.29 0 0 1-1.07-4.1q0-5.65 4.64-5.65M111.55 87h3.63a2.87 2.87 0 0 0-.4-1.75 2.2 2.2 0 0 0-2.8 0 2.9 2.9 0 0 0-.43 1.73m1.83-5.56c-4.91 0-5.64 4.17-5.64 6.65a7.14 7.14 0 0 0 1.31 4.74 5.24 5.24 0 0 0 4.21 1.61 19.76 19.76 0 0 0 4.61-.62l.78-.19v-3.5h.08l.1-.89.21-2v-.11c0-3.71-2-5.75-5.58-5.75zm-.68 4.56a.49.49 0 0 1 .06-.11c0-.05.22-.14.62-.14s.59.09.62.12a.49.49 0 0 1 .06.13z"/><path class="cls-4" d="M125.79 93.64v-6.11a4.15 4.15 0 0 0-.26-1.76c0-.1-.18-.36-.81-.36a4.28 4.28 0 0 0-1.41.24v8h-3.81V82.14h3.79v.26a5.15 5.15 0 0 1 2.13-.51 3.66 3.66 0 0 1 3.32 1.47 7.6 7.6 0 0 1 .88 4.09v6.19z"/><path class="cls-5" d="M125.41 82.39a3.18 3.18 0 0 1 2.9 1.24 7.21 7.21 0 0 1 .8 3.82v5.69h-2.81v-5.61a4.71 4.71 0 0 0-.31-2 1.26 1.26 0 0 0-1.26-.64 4.76 4.76 0 0 0-1.66.29l-.25.08v7.85H120V82.64h2.79v.59a5.26 5.26 0 0 1 2.63-.84m0-1a5.16 5.16 0 0 0-1.62.28H119v12.5h4.81V86a3.78 3.78 0 0 1 .91-.11c.12 0 .33 0 .36.08a3.71 3.71 0 0 1 .21 1.54v6.61h4.81v-6.67a8.05 8.05 0 0 0-1-4.36 4.12 4.12 0 0 0-3.74-1.7z"/><path class="cls-4" d="M135.3 93.89a3.66 3.66 0 0 1-3-1 5.53 5.53 0 0 1-.81-3.45v-3.91h-1.24v-3.39h1.24v-2.92h3.81v2.92h2.58v3.39h-2.58v3.81a8.17 8.17 0 0 0 0 .83.23.23 0 0 0 .08.15s.06.05.28.05l2.07-.05.18 3.15-.41.09a11 11 0 0 1-2.2.33z"/><path class="cls-5" d="M134.84 79.72v2.92h2.58V85h-2.58v4.31a8.47 8.47 0 0 0 0 .89.73.73 0 0 0 .23.45.87.87 0 0 0 .62.19h1.6l.13 2.25a10.69 10.69 0 0 1-2.14.31 3.2 3.2 0 0 1-2.58-.85 5.16 5.16 0 0 1-.7-3.15V85h-1.24v-2.36H132v-2.92h2.81m1-1H131v2.92h-1.24V86H131v3.4a6 6 0 0 0 .92 3.77 4.12 4.12 0 0 0 3.36 1.22 11.47 11.47 0 0 0 2.36-.34l.83-.19v-.85l-.13-2.25-.05-1h-2.44V86h2.58v-4.36h-2.58v-2.92z"/><path class="cls-4" d="M139.46 94.17h9.99v3.39h-9.99z"/><path class="cls-5" d="M149 94.67v2.39h-9v-2.39h9m1-1h-11v4.39h11v-4.39z"/><path class="cls-4" d="M160.92 93.89a8.45 8.45 0 0 1-1.82-.16 4.18 4.18 0 0 1-1.22-.51 7.46 7.46 0 0 1-3 .67c-2.46 0-3.75-1.36-3.75-3.94a3.32 3.32 0 0 1 1.09-2.78 5.48 5.48 0 0 1 3-.93l1.78-.14v-.19c0-.31-.06-.46-.11-.51a1 1 0 0 0-.63-.13l-4.43.19-.12-2.85.39-.1a16.94 16.94 0 0 1 4.4-.63 4.65 4.65 0 0 1 3.26 1 4 4 0 0 1 1 3.05v4.37a1.28 1.28 0 0 0 .09.43 1 1 0 0 0 .21.06l.41.09-.12 3zm-5.29-4.71c-.52 0-.72.25-.72.76s.23.65.53.65a6.26 6.26 0 0 0 1.56-.22v-1.3z"/><path class="cls-5" d="M156.5 82.39a4.18 4.18 0 0 1 2.92.84 3.54 3.54 0 0 1 .89 2.69v4.37a1.69 1.69 0 0 0 .17.7.78.78 0 0 0 .53.28l-.08 2.12a8 8 0 0 1-1.71-.15 3.84 3.84 0 0 1-1.29-.59 7 7 0 0 1-3.09.73q-3.25 0-3.25-3.44a2.85 2.85 0 0 1 .9-2.38 5.06 5.06 0 0 1 2.77-.83l2.25-.17v-.65a1.11 1.11 0 0 0-.29-.89 1.49 1.49 0 0 0-.95-.24l-3.95.17-.08-2a16.35 16.35 0 0 1 4.27-.61m-1.06 8.71a6.79 6.79 0 0 0 1.74-.25l.32-.08v-2.2l-1.91.17a1.14 1.14 0 0 0-1.18 1.26q0 1.16 1 1.15m1.06-9.71A17.43 17.43 0 0 0 152 82l-.77.21v.8l.08 2v1h1l1.69-.07a5 5 0 0 0-2.18.9 3.79 3.79 0 0 0-1.29 3.17c0 2.87 1.51 4.44 4.25 4.44a7.91 7.91 0 0 0 3-.61 4.54 4.54 0 0 0 1.14.44 8.82 8.82 0 0 0 1.93.17h1v-1l.08-2.12v-.84l-.72-.15v-4.4a4.49 4.49 0 0 0-1.21-3.42 5 5 0 0 0-3.6-1.11zm-1.06 8.34a.83.83 0 0 1 .23 0l.82-.07V90a5.3 5.3 0 0 1-1.06.12 1.12 1.12 0 0 1 0-.15.54.54 0 0 1 0-.22z"/><path class="cls-4" d="M168.8 93.64v-6.11a4.15 4.15 0 0 0-.26-1.76c0-.1-.18-.36-.81-.36a4.28 4.28 0 0 0-1.41.24v8h-3.82V82.14h3.79v.26a5.15 5.15 0 0 1 2.13-.51 3.66 3.66 0 0 1 3.32 1.47 7.6 7.6 0 0 1 .88 4.09v6.19z"/><path class="cls-5" d="M168.42 82.39a3.18 3.18 0 0 1 2.9 1.24 7.21 7.21 0 0 1 .8 3.82v5.69h-2.82v-5.61a4.71 4.71 0 0 0-.31-2 1.26 1.26 0 0 0-1.26-.64 4.76 4.76 0 0 0-1.66.29l-.25.08v7.85H163V82.64h2.79v.59a5.26 5.26 0 0 1 2.63-.84m0-1a5.16 5.16 0 0 0-1.62.28H162v12.5h4.81V86a3.78 3.78 0 0 1 .91-.11c.12 0 .33 0 .36.08a3.71 3.71 0 0 1 .21 1.54v6.61h4.81v-6.67a8.05 8.05 0 0 0-1-4.36 4.12 4.12 0 0 0-3.74-1.7z"/><path class="cls-4" d="M178.27 93.89a18.93 18.93 0 0 1-3.45-.39l-1.09-.21.12-3.33.54.07a33.23 33.23 0 0 0 3.56.33 2.73 2.73 0 0 0 1.15-.14c.1-.05.11-.09.11-.16s0-.09-.11-.14a9.07 9.07 0 0 0-1.88-.42 5.62 5.62 0 0 1-2.66-1 3.32 3.32 0 0 1-1-2.71 3.44 3.44 0 0 1 1.33-2.92 5.25 5.25 0 0 1 3.22-1 19.94 19.94 0 0 1 3.47.41l1.11.2-.06 3.31-.55-.07a33.39 33.39 0 0 0-3.58-.33 2.64 2.64 0 0 0-1.08.11s-.07 0-.07.17 0 .07.09.1a14.51 14.51 0 0 0 2 .44 5 5 0 0 1 2.66 1.13A3.51 3.51 0 0 1 183 90c0 1.77-.83 3.89-4.73 3.89z"/><path class="cls-5" d="M178.12 82.41a19.64 19.64 0 0 1 3.38.4l.69.13v2.33a33.52 33.52 0 0 0-3.64-.34 3 3 0 0 0-1.34.19.65.65 0 0 0-.3.6.57.57 0 0 0 .41.57 15.89 15.89 0 0 0 2.1.46 4.62 4.62 0 0 1 2.4 1 3 3 0 0 1 .71 2.25q0 3.4-4.22 3.4a18.33 18.33 0 0 1-3.36-.38l-.67-.13.08-2.35a33.44 33.44 0 0 0 3.62.34 3.25 3.25 0 0 0 1.38-.2.64.64 0 0 0 .37-.6.62.62 0 0 0-.39-.59 10 10 0 0 0-2-.46 5.2 5.2 0 0 1-2.43-.92 2.86 2.86 0 0 1-.8-2.32 3 3 0 0 1 1.13-2.52 4.74 4.74 0 0 1 2.92-.85m0-1a5.74 5.74 0 0 0-3.52 1 3.93 3.93 0 0 0-1.53 3.32 3.79 3.79 0 0 0 1.16 3.1 4.91 4.91 0 0 0 1.64.84l-1.42-.17-1.09-.14v1.1l-.08 2.35v.86l.85.16.67.13a19.38 19.38 0 0 0 3.54.4c4.54 0 5.22-2.76 5.22-4.4a4 4 0 0 0-1-3 4.21 4.21 0 0 0-1.53-.9l1.08.13 1.11.14v-4.3l-.84-.15-.69-.13a20.35 20.35 0 0 0-3.56-.42z"/><path class="cls-4" d="M192.11 93.64l-.78-4.2-.78 4.2h-5.24l-2.19-11.5h3.81l1.13 7.18 1.41-6.97h3.72l1.41 6.97 1.13-7.18h3.8l-2.18 11.5h-5.24z"/><path class="cls-5" d="M198.93 82.64l-2 10.5h-4.41l-1.2-6.43-1.2 6.43h-4.41l-2-10.5h2.77l1.28 8.11h.5l1.6-7.9h2.9l1.6 7.9h.5l1.28-8.11h2.77m1.21-1h-4.83l-.13.84-.64 4-.78-3.85-.16-.8h-4.53l-.16.8-.78 3.85-.64-4-.13-.84h-4.83l.23 1.19 2 10.5.15.81H191l.15-.82.21-1.15.21 1.15.15.82h6.07l.15-.81 2-10.5.23-1.19z"/><path class="cls-4" d="M204.73 93.89a4.77 4.77 0 0 1-3.83-1.44 6.69 6.69 0 0 1-1.19-4.45c0-5.08 2.8-6.15 5.14-6.15 3.32 0 5.08 1.81 5.08 5.25l-.26 2.45h-6.06a1 1 0 0 0 .28.52 1.63 1.63 0 0 0 1.09.31c1.28 0 2.44 0 3.45-.12l1.12-.12.06 3-.39.09a19.23 19.23 0 0 1-4.49.66zm1.41-7.45a1.76 1.76 0 0 0-.27-.94 1.28 1.28 0 0 0-1-.31 1.26 1.26 0 0 0-1 .33 1.79 1.79 0 0 0-.29.92z"/><path class="cls-5" d="M204.85 82.39q4.58 0 4.58 4.75l-.21 2H203a1.82 1.82 0 0 0 .51 1.4 2.09 2.09 0 0 0 1.42.43q2 0 3.49-.13l.59-.06v2.08a18.65 18.65 0 0 1-4.37.59 4.29 4.29 0 0 1-3.45-1.26 6.3 6.3 0 0 1-1.07-4.1q0-5.65 4.64-5.65M203 86.95h3.63a2.87 2.87 0 0 0-.4-1.75 2.2 2.2 0 0 0-2.8 0 2.9 2.9 0 0 0-.43 1.73m1.83-5.56c-4.91 0-5.64 4.17-5.64 6.65a7.15 7.15 0 0 0 1.31 4.74 5.24 5.24 0 0 0 4.21 1.61 19.72 19.72 0 0 0 4.6-.62l.78-.19v-3.5h.08l.1-.89.21-2v-.11c0-3.71-2-5.75-5.58-5.75zm-.67 4.56a.48.48 0 0 1 .06-.11c0-.05.22-.14.63-.14s.59.09.62.12a.49.49 0 0 1 .06.12z"/><path class="cls-4" d="M210.95 93.64v-11.5h3.79v.76a10.49 10.49 0 0 1 2.76-1l.6-.12v3.85l-.4.08c-1.12.23-2.08.48-2.87.72h-.07v7.18z"/><path class="cls-5" d="M217.6 82.39v2.83q-1.7.36-2.92.73l-.42.15v7h-2.81V82.64h2.79v1.11a10.71 10.71 0 0 1 3.36-1.36m1-1.22l-1.19.24a10.3 10.3 0 0 0-2.17.7v-.47h-4.79v12.5h4.81v-7.31c.7-.21 1.56-.42 2.55-.62l.79-.17v-4.87z"/><path class="cls-4" d="M217.56 89.15h4.02v4.49h-4.02z"/><path class="cls-5" d="M221.09 89.65v3.49h-3v-3.49h3m1-1h-5v5.49h5v-5.49z"/><path class="cls-4" d="M227.15 93.89a4.06 4.06 0 0 1-3.6-1.54 8 8 0 0 1-1-4.47 6.93 6.93 0 0 1 1.2-4.5 4.47 4.47 0 0 1 3.65-1.49 11.23 11.23 0 0 1 1.77.19v-4.14H233v15.7h-3.79v-.18a5.8 5.8 0 0 1-2.06.43zm.46-8.57c-.3 0-1.2 0-1.2 2.52a4.63 4.63 0 0 0 .32 2.09.82.82 0 0 0 .81.43 6.77 6.77 0 0 0 1.63-.22v-4.7a10.41 10.41 0 0 0-1.55-.12z"/><path class="cls-5" d="M232.49 78.44v14.7h-2.79v-.44a6.15 6.15 0 0 1-2.54.69 3.59 3.59 0 0 1-3.16-1.32 7.59 7.59 0 0 1-.9-4.19 6.53 6.53 0 0 1 1.08-4.18 4 4 0 0 1 3.26-1.31 11.57 11.57 0 0 1 1.87.21l.4.08v-4.24h2.81m-4.95 12.43a7.28 7.28 0 0 0 1.84-.25l.29-.06V85a11.7 11.7 0 0 0-2.06-.21q-1.7 0-1.7 3a5.2 5.2 0 0 0 .38 2.33 1.31 1.31 0 0 0 1.25.69m5.95-13.43h-4.81v4.05a9.49 9.49 0 0 0-1.27-.1 5 5 0 0 0-4 1.68 7.38 7.38 0 0 0-1.31 4.81 8.42 8.42 0 0 0 1.08 4.75 4.53 4.53 0 0 0 4 1.76 5.58 5.58 0 0 0 1.59-.25h4.74V77.44zm-5.95 12.43c-.28 0-.32-.08-.37-.17a4.2 4.2 0 0 1-.26-1.85c0-.76.09-2 .7-2a9 9 0 0 1 1.06.07v3.86a5.92 5.92 0 0 1-1.13.12z"/><path class="cls-4" d="M240.17 93.64l-1.4-2.64-1.38 2.64h-4.15l3.15-5.77-3.15-5.73h4.15l1.38 2.67 1.39-2.67h4.18l-3.28 5.65 3.26 5.85h-4.15z"/><path class="cls-5" d="M243.47 82.64l-3 5.15 3 5.35h-3l-1.7-3.21-1.68 3.21h-3l2.91-5.27-2.88-5.23h3l1.68 3.25 1.7-3.25h3m1.74-1h-5.35l-.28.54-.81 1.55-.8-1.54-.28-.54h-5.3l.82 1.48 2.61 4.75-2.61 4.79-.81 1.48h5.29l.28-.54.8-1.53.81 1.53.28.53h5.31l-.83-1.49-2.71-4.86 2.7-4.65.87-1.5z"/><path class="cls-4" d="M244.55 93.64v-11.5h3.79v.76a10.49 10.49 0 0 1 2.76-1l.6-.12v3.85l-.4.08c-1.12.23-2.08.48-2.87.72h-.07v7.18z"/><path class="cls-5" d="M251.2 82.39v2.83q-1.7.36-2.92.73l-.42.15v7H245V82.64h2.79v1.11a10.71 10.71 0 0 1 3.36-1.36m1-1.22l-1.19.24a10.3 10.3 0 0 0-2.17.7v-.47H244v12.5h4.81v-7.31c.7-.21 1.56-.42 2.55-.62l.79-.17v-4.87z"/><path class="cls-4" d="M310.2 98.73h23.33v6.51a2 2 0 0 0 3.29 1.53l18.53-15.58a2 2 0 0 0 0-3.06l-18.53-15.59a2 2 0 0 0-3.29 1.53v6.51H310.2a2 2 0 0 0-2 2v14.15a2 2 0 0 0 2 2z"/></g></svg>