<svg xmlns="http://www.w3.org/2000/svg" viewBox="0 0 191.05 83.55"><defs><style>.cls-1{fill:#92989e}.cls-2{fill:#3ccb93}.cls-3{fill:#fff}</style></defs><title>Student_snswers_saved_illustration</title><g id="Layer_3" data-name="Layer 3"><g id="USB"><path class="cls-1" d="M24.56 42.14h-8.73v-10.2h8.73zm-5.89-2.84h3v-4.52h-3zM24.67 26h-8.73V15.83h8.73zm-5.89-2.84h3v-4.49h-3z"/><path class="cls-1" d="M133.93 0h-84.8a11.91 11.91 0 0 0-11.54 9.09H.42v39.66h37.17a11.91 11.91 0 0 0 11.55 9.09h84.8c14.62 0 26.51-13 26.51-28.92S148.55 0 133.93 0zM3.27 11.93h34v34h-34zM133.93 55h-84.8a9.06 9.06 0 0 1-9.05-9.05v-34a9.06 9.06 0 0 1 9.05-9.05h84.8c13.05 0 23.67 11.7 23.67 26.07S147 55 133.93 55z"/></g><path class="cls-2" d="M71.05 70.27q-2.29 0-2.29 1.51a1.14 1.14 0 0 0 .57 1 14.67 14.67 0 0 0 2.66 1 7.34 7.34 0 0 1 2.93 1.52 3.59 3.59 0 0 1 .84 2.7 4.21 4.21 0 0 1-1.37 3.4 5.34 5.34 0 0 1-3.57 1.15 19.87 19.87 0 0 1-4-.5l-.76-.15.29-2.25a35 35 0 0 0 4.3.38q2.23 0 2.23-1.85a1.23 1.23 0 0 0-.51-1 7.3 7.3 0 0 0-2-.82 8.35 8.35 0 0 1-3.43-1.65 3.5 3.5 0 0 1-1-2.66 3.86 3.86 0 0 1 1.3-3.19 5.53 5.53 0 0 1 3.57-1.05 23.7 23.7 0 0 1 3.95.42l.76.15-.23 2.29q-3.02-.4-4.24-.4zM85.88 75.06v4.37a1.68 1.68 0 0 0 .17.7.78.78 0 0 0 .53.28l-.08 2.12a8 8 0 0 1-1.71-.15 3.85 3.85 0 0 1-1.29-.59 7 7 0 0 1-3.09.73q-3.26 0-3.25-3.44A2.85 2.85 0 0 1 78 76.7a5.07 5.07 0 0 1 2.77-.83l2.25-.17v-.65a1.11 1.11 0 0 0-.29-.89 1.49 1.49 0 0 0-.95-.24l-3.95.17-.08-2a16.36 16.36 0 0 1 4.27-.61 4.18 4.18 0 0 1 2.92.84 3.54 3.54 0 0 1 .94 2.74zm-4.72 2.77A1.14 1.14 0 0 0 80 79.09q0 1.16 1 1.15a6.8 6.8 0 0 0 1.75-.24l.32-.08v-2.26zM87.45 71.78h2.94l1.68 8.11h.59l1.76-8.11h2.86l-2.52 10.5H90zM101.58 79.62a2.09 2.09 0 0 0 1.42.43q2 0 3.49-.13l.59-.06v2.08a18.66 18.66 0 0 1-4.37.59 4.29 4.29 0 0 1-3.44-1.26 6.3 6.3 0 0 1-1.07-4.1q0-5.65 4.64-5.65t4.58 4.75l-.21 2h-6.17a1.82 1.82 0 0 0 .54 1.35zm3.1-3.54a2.87 2.87 0 0 0-.4-1.75 2.2 2.2 0 0 0-2.8 0 2.9 2.9 0 0 0-.43 1.73zM118.38 67.58v14.7h-2.79v-.44a6.15 6.15 0 0 1-2.54.69 3.59 3.59 0 0 1-3.19-1.32A7.58 7.58 0 0 1 109 77a6.54 6.54 0 0 1 1-4.16 4 4 0 0 1 3.26-1.31 11.59 11.59 0 0 1 1.87.21l.4.08v-4.24zm-3.11 12.18l.29-.06v-5.53a11.68 11.68 0 0 0-2.06-.21q-1.7 0-1.7 3a5.21 5.21 0 0 0 .38 2.33 1.31 1.31 0 0 0 1.25.69 7.29 7.29 0 0 0 1.85-.22zM121.39 77l-.27-9h3l-.29 9zm-.27 5.25V78.9h3v3.38z"/><g id="Symbols"><g id="icon-checkmark"><g id="Group"><circle id="Oval-2" class="cls-2" cx="95.34" cy="29.11" r="18.62"/><path id="Page-1" class="cls-3" d="M103.5 20.43L92.76 31.16l-5.58-5.59-3.01 3.02 8.59 8.6 13.75-13.75-.45-.45-2.56-2.56z"/></g></g></g></g></svg>