<?xml version="1.0" encoding="UTF-8"?>
<svg width="27px" height="26px" viewBox="0 0 27 26" version="1.1" xmlns="http://www.w3.org/2000/svg" xmlns:xlink="http://www.w3.org/1999/xlink">
    <!-- Generator: Sketch 55 (78076) - https://sketchapp.com -->
    <title>Låst symbol</title>
    <desc>Created with Sketch.</desc>
    <g id="Symbols" stroke="none" stroke-width="1" fill="none" fill-rule="evenodd">
        <g id="Header" transform="translate(-866.000000, -31.000000)">
            <g transform="translate(0.000000, 2.000000)" id="Låst-symbol">
                <g transform="translate(866.000000, 29.000000)">
                    <ellipse id="Oval" fill="#D3D3D3" fill-rule="evenodd" cx="13.5" cy="13" rx="13.5" ry="13"></ellipse>
                    <g id="Icon/-Lock" transform="translate(8.000000, 7.000000)" fill="#36424F" fill-rule="nonzero">
                        <path d="M9.25478563,5.0357268 C9.56327836,5.0357268 9.82549753,5.14510166 10.0414424,5.36385102 C10.2573873,5.58260038 10.3653599,5.84822498 10.3653599,6.16072412 L10.3653599,10.6607134 C10.3653599,10.9732125 10.2573873,11.2388371 10.0414424,11.4575865 C9.82549753,11.6763359 9.56327836,11.7857107 9.25478563,11.7857107 L1.11057428,11.7857107 C0.802081539,11.7857107 0.539862377,11.6763359 0.323917497,11.4575865 C0.107972617,11.2388371 0,10.9732125 0,10.6607134 L0,6.16072412 C0,5.84822498 0.107972617,5.58260038 0.323917497,5.36385102 C0.539862377,5.14510166 0.802081539,5.0357268 1.11057428,5.0357268 L1.66586141,5.0357268 L1.66586141,3.34823083 C1.66586141,2.70760747 1.82396388,2.11385865 2.14016918,1.56698507 C2.45637447,1.0201115 2.8844083,0.58651878 3.42427068,0.266206924 C3.96413306,-0.0541049314 4.55026972,-0.21426068 5.18267995,-0.21426068 C5.81509018,-0.21426068 6.40122684,-0.0541049314 6.94108922,0.266206924 C7.4809516,0.58651878 7.90898543,1.0201115 8.22519073,1.56698507 C8.54139602,2.11385865 8.69949849,2.70760747 8.69949849,3.34823083 L8.69949849,5.0357268 L9.25478563,5.0357268 Z M6.84854136,5.0357268 L6.84854136,3.34823083 C6.84854136,2.87948194 6.68658262,2.48104539 6.36266512,2.15292118 C6.03874762,1.82479696 5.64541923,1.66073485 5.18267995,1.66073485 C4.71994067,1.66073485 4.32661228,1.82479696 4.00269478,2.15292118 C3.67877729,2.48104539 3.51681854,2.87948194 3.51681854,3.34823083 L3.51681854,5.0357268 L6.84854136,5.0357268 Z" id=""></path>
                    </g>
                </g>
            </g>
        </g>
    </g>
</svg>
