<?xml version="1.0" encoding="UTF-8"?>
<svg width="25px" height="25px" viewBox="0 0 30 30" version="1.1" xmlns="http://www.w3.org/2000/svg" xmlns:xlink="http://www.w3.org/1999/xlink">
    <!-- Generator: Sketch 53.2 (72643) - https://sketchapp.com -->
    <title>Icon Lock</title>
    <desc>Created with Sketch.</desc>
    <g id="Ny-grafik" stroke="none" stroke-width="1" fill="none" fill-rule="evenodd">
        <g id="Icons-to-SVG" transform="translate(-125.000000, -5.000000)" fill="#ffffff" fill-rule="nonzero">
            <g id="Icon/-Lock" transform="translate(134.000000, 11.000000)">
                <path d="M10.9374739,5.8750146 C11.3020562,5.8750146 11.6119516,6.0026186 11.8671592,6.25782619 C12.1223668,6.51303378 12.2499708,6.82292915 12.2499708,7.18751147 L12.2499708,12.437499 C12.2499708,12.8020813 12.1223668,13.1119767 11.8671592,13.3671842 C11.6119516,13.6223918 11.3020562,13.7499958 10.9374739,13.7499958 L1.31249687,13.7499958 C0.947914546,13.7499958 0.638019173,13.6223918 0.382811587,13.3671842 C0.127604002,13.1119767 0,12.8020813 0,12.437499 L0,7.18751147 C0,6.82292915 0.127604002,6.51303378 0.382811587,6.25782619 C0.638019173,6.0026186 0.947914546,5.8750146 1.31249687,5.8750146 L1.96874531,5.8750146 L1.96874531,3.9062693 C1.96874531,3.15887538 2.15559368,2.46616842 2.52929084,1.82814925 C2.90298801,1.19013008 3.40884618,0.68427191 4.04686535,0.310574745 C4.68488452,-0.06312242 5.37759148,-0.249970794 6.1249854,-0.249970794 C6.87237931,-0.249970794 7.56508627,-0.06312242 8.20310544,0.310574745 C8.84112462,0.68427191 9.34698278,1.19013008 9.72067995,1.82814925 C10.0943771,2.46616842 10.2812255,3.15887538 10.2812255,3.9062693 L10.2812255,5.8750146 L10.9374739,5.8750146 Z M8.0937307,5.8750146 L8.0937307,3.9062693 C8.0937307,3.3593956 7.90232491,2.89455296 7.51951332,2.51174137 C7.13670173,2.12892978 6.67185909,1.93752399 6.1249854,1.93752399 C5.5781117,1.93752399 5.11326906,2.12892978 4.73045747,2.51174137 C4.34764588,2.89455296 4.15624009,3.3593956 4.15624009,3.9062693 L4.15624009,5.8750146 L8.0937307,5.8750146 Z" id=""></path>
            </g>
        </g>
    </g>
</svg>
