<?xml version="1.0" encoding="UTF-8" standalone="no"?>
<svg width="32px" height="29px" viewBox="0 0 32 29" version="1.1" xmlns="http://www.w3.org/2000/svg" xmlns:xlink="http://www.w3.org/1999/xlink">
    <!-- Generator: Sketch 47.1 (45422) - http://www.bohemiancoding.com/sketch -->
    <title>Readability-icon</title>
    <desc>Created with Sketch.</desc>
    <defs></defs>
    <g id="Symbols" stroke="none" stroke-width="1" fill="none" fill-rule="evenodd">
        <g id="Readability-icon" fill-rule="nonzero" fill="#4A4A4A">
            <g id="Group-12">
                <polygon id="Line-2" points="0.416666667 2.5 31.5833333 2.5 31.5833333 0.5 0.416666667 0.5"></polygon>
                <path d="M17.9916344,10.1666667 L31.5833333,10.1666667 L31.5833333,8.16666667 L0.416666667,8.16666667 L0.416666667,10.1666667 L14.0083656,10.1666667 C14.5948179,9.82931154 15.2748762,9.63636364 16,9.63636364 C16.7251238,9.63636364 17.4051821,9.82931154 17.9916344,10.1666667 Z" id="Combined-Shape"></path>
                <path d="M12.6568118,15.8333333 L0.416666667,15.8333333 L0.416666667,17.8333333 L31.5833333,17.8333333 L31.5833333,15.8333333 L19.3431882,15.8333333 C18.6279868,16.9194753 17.3977125,17.6363636 16,17.6363636 C14.6022875,17.6363636 13.3720132,16.9194753 12.6568118,15.8333333 Z" id="Combined-Shape"></path>
                <polygon id="Line-2" points="0.392857143 25.5 13 25.5 13 23.5 0.392857143 23.5"></polygon>
                <path d="M16,17.6363636 C18.209139,17.6363636 20,15.8455026 20,13.6363636 C20,11.4272246 18.209139,9.63636364 16,9.63636364 C13.790861,9.63636364 12,11.4272246 12,13.6363636 C12,15.8455026 13.790861,17.6363636 16,17.6363636 Z M16,21.6363636 C11.581722,21.6363636 8,18.0546416 8,13.6363636 C8,9.21808564 11.581722,5.63636364 16,5.63636364 C20.418278,5.63636364 24,9.21808564 24,13.6363636 C24,18.0546416 20.418278,21.6363636 16,21.6363636 Z" id="Oval-2"></path>
                <path d="M19.9373426,21.4011208 L26.5484537,28.3758683 C27.3083248,29.1775351 28.5742014,29.2114173 29.3758683,28.4515463 C30.1775351,27.6916752 30.2114173,26.4257986 29.4515463,25.6241317 L22.8404352,18.6493843 C22.0805641,17.8477174 20.8146875,17.8138352 20.0130206,18.5737063 C19.2113538,19.3335773 19.1774716,20.5994539 19.9373426,21.4011208 Z" id="Line-3"></path>
                <polygon id="Line-2" points="9 14.4545455 23 14.4545455 23 12.4545455 9 12.4545455"></polygon>
            </g>
        </g>
    </g>
</svg>