<?xml version="1.0" encoding="UTF-8" standalone="no"?>
<svg width="18px" height="18px" viewBox="0 0 18 18" version="1.1" xmlns="http://www.w3.org/2000/svg" xmlns:xlink="http://www.w3.org/1999/xlink">
    <!-- Generator: Sketch 47.1 (45422) - http://www.bohemiancoding.com/sketch -->
    <title>icon_close_web_link</title>
    <desc>Created with Sketch.</desc>
    <defs></defs>
    <g id="Symbols" stroke="none" stroke-width="1" fill="none" fill-rule="evenodd">
        <g id="icon_close_web_link" fill-rule="nonzero" fill="#4A4A4A">
            <path d="M10.5518692,8.86234438 L17.0404401,2.37377345 C17.4309644,1.98324916 17.4309644,1.35008418 17.0404401,0.959559885 C16.6499158,0.569035594 16.0167508,0.569035594 15.6262266,0.959559885 L9.13765562,7.44813082 L2.64908468,0.959559885 C2.25856039,0.569035594 1.62539541,0.569035594 1.23487112,0.959559885 C0.84434683,1.35008418 0.84434683,1.98324916 1.23487112,2.37377345 L7.72344206,8.86234438 L1.23487112,15.3509153 C0.84434683,15.7414396 0.84434683,16.3746046 1.23487112,16.7651289 C1.62539541,17.1556532 2.25856039,17.1556532 2.64908468,16.7651289 L9.13765562,10.2765579 L15.6262266,16.7651289 C16.0167508,17.1556532 16.6499158,17.1556532 17.0404401,16.7651289 C17.4309644,16.3746046 17.4309644,15.7414396 17.0404401,15.3509153 L10.5518692,8.86234438 Z" id="Combined-Shape"></path>
        </g>
    </g>
</svg>