<?xml version="1.0" encoding="UTF-8"?>
<svg xmlns="http://www.w3.org/2000/svg" xmlns:xlink="http://www.w3.org/1999/xlink" width="28px" height="28px" viewBox="-5 0 30 20" version="1.1">
  <g id="icon_reload" fill="#4A4A4A" fill-rule="evenodd">
    <path d="M 17.996094 10.414062 C 17.605469 17.507812 8.945312 20.5 4.167969 15.511719 L 5.503906 15.511719 C 6.835938 15.511719 6.835938 13.460938 5.503906 13.460938 C 3.835938 13.460938 2.171875 13.460938 0.503906 13.460938 L 0.503906 18.503906 C 0.449219 19.832031 2.503906 19.832031 2.503906 18.503906 L 2.503906 16.621094 C 8.335938 23.214844 19.496094 19.5 19.996094 10.527344 C 20.105469 9.195312 18.050781 9.085938 17.996094 10.414062 Z M 17.996094 10.414062 "/>
    <path d="M 0.00390625 9.417969 C -0.105469 10.746094 1.949219 10.859375 2.003906 9.527344 C 2.394531 2.492188 11.054688 -0.554688 15.832031 4.488281 L 14.496094 4.488281 C 13.164062 4.488281 13.164062 6.480469 14.496094 6.480469 C 16.164062 6.480469 17.828125 6.480469 19.496094 6.480469 L 19.496094 1.496094 C 19.550781 0.167969 17.496094 0.167969 17.496094 1.496094 L 17.496094 3.378906 C 11.664062 -3.269531 0.503906 0.441406 0.00390625 9.417969 Z M 0.00390625 9.417969 "/>
  </g>
</svg>
