<?xml version="1.0" encoding="UTF-8" standalone="no"?>
<svg width="16px" height="16px" viewBox="0 0 16 16" version="1.1" xmlns="http://www.w3.org/2000/svg" xmlns:xlink="http://www.w3.org/1999/xlink">
    <!-- Generator: Sketch 47.1 (45422) - http://www.bohemiancoding.com/sketch -->
    <title>icon_arrow_left</title>
    <desc>Created with Sketch.</desc>
    <defs></defs>
    <g id="Symbols" stroke="none" stroke-width="1" fill="none" fill-rule="evenodd">
        <g id="icon_arrow_left" fill="#4A4A4A">
            <path d="M7.1038888,15.7657952 C7.41669271,16.0780683 7.92309904,16.0780683 8.23510294,15.7657952 C8.54790685,15.4535222 8.54790685,14.9479753 8.23510294,14.6365009 L3.08303854,9.49318026 C2.83103539,9.24160479 3.00943762,8.81192987 3.36544207,8.81192987 L15.19999,8.81192987 C15.6415955,8.81192987 16,8.44694578 16,8.00608972 L16,8.00289511 C16,7.56203906 15.6415955,7.21462532 15.19999,7.21462532 L3.36544207,7.21462532 C3.00943762,7.21462532 2.83103539,6.78415174 3.08303854,6.53257628 L8.25990325,1.36369876 C8.57270716,1.05142572 8.57270716,0.545878829 8.25990325,0.23360579 L8.25990325,0.23360579 C7.94789935,-0.0778685967 7.44149302,-0.0778685967 7.12868911,0.23360579 L0.468605858,6.88318463 C-0.156201953,7.50693205 -0.156201953,8.51802583 0.468605858,9.14177326 C0.631007888,9.30389967 7.23269041,15.8943782 7.1038888,15.7657952" id="arrow_left-[#361]"></path>
        </g>
    </g>
</svg>