<svg width="32" height="35" viewBox="0 0 32 35" xmlns="http://www.w3.org/2000/svg"><title>icon-timer-notification</title><g fill="#C2720A" fill-rule="evenodd"><path d="M.09 19.193c0 8.61 6.995 15.606 15.606 15.606 8.61 0 15.605-6.995 15.605-15.606a15.55 15.55 0 0 0-4.544-11.001l1.226-1.226.568.568c.24.239.538.359.867.359.329 0 .628-.12.867-.36a1.227 1.227 0 0 0 0-1.733l-2.84-2.84a1.227 1.227 0 0 0-1.734 1.734l.568.568-1.345 1.345c-2.273-1.674-4.993-2.72-7.983-2.96V2.601h2.72c.688 0 1.227-.538 1.227-1.226 0-.687-.539-1.226-1.226-1.226H11.6c-.688 0-1.226.539-1.226 1.226 0 .688.538 1.226 1.226 1.226h2.9v1.046C6.428 4.275.09 11.002.09 19.193zM15.696 6.04c7.264 0 13.184 5.92 13.184 13.184 0 7.265-5.92 13.185-13.184 13.185-7.265 0-13.185-5.92-13.185-13.185 0-7.294 5.92-13.184 13.185-13.184z" fill-rule="nonzero"/><path d="M14.24 20.158l-.38-5.66c-.072-1.103-.108-1.895-.108-2.375 0-.654.173-1.164.517-1.53.345-.367.798-.55 1.36-.55.681 0 1.137.234 1.366.703.23.469.345 1.144.345 2.027 0 .52-.028 1.047-.083 1.583l-.511 5.826c-.056.693-.174 1.225-.356 1.595-.183.37-.484.555-.903.555-.428 0-.725-.179-.891-.537-.167-.359-.285-.904-.357-1.637zm1.318 7.775c-.483 0-.905-.155-1.265-.466-.36-.311-.54-.747-.54-1.306 0-.488.172-.904.516-1.247a1.725 1.725 0 0 1 1.265-.514c.5 0 .925.172 1.277.514.353.343.529.759.529 1.247 0 .551-.178.985-.535 1.3a1.824 1.824 0 0 1-1.247.472z"/></g></svg>