<?xml version="1.0" encoding="UTF-8" standalone="no"?>
<svg width="25px" height="17px" viewBox="0 0 25 17" version="1.1" xmlns="http://www.w3.org/2000/svg" xmlns:xlink="http://www.w3.org/1999/xlink">
    <!-- Generator: Sketch 47 (45396) - http://www.bohemiancoding.com/sketch -->
    <title>icon_volume</title>
    <desc>Created with Sketch.</desc>
    <defs></defs>
    <g id="Symbols" stroke="none" stroke-width="1" fill="none" fill-rule="evenodd">
        <g id="icon_volume" fill="#4A4A4A">
            <g id="icon_audioplayer_volume">
                <path d="M23.444718,3.07743267 L23.444718,3.07743267 C24.0073912,3.07743267 24.4640536,3.50995714 24.4640536,4.04288907 L24.4640536,13.6974531 C24.4640536,14.230385 24.0073912,14.6629095 23.444718,14.6629095 L23.444718,14.6629095 C22.8820448,14.6629095 22.4253824,14.230385 22.4253824,13.6974531 L22.4253824,4.04288907 C22.4253824,3.50995714 22.8820448,3.07743267 23.444718,3.07743267 L23.444718,3.07743267 Z M18.3480402,11.7665403 L18.3480402,5.97380187 C18.3480402,5.44086994 18.8047025,5.00834547 19.3673758,5.00834547 L19.3673758,5.00834547 C19.930049,5.00834547 20.3867113,5.44086994 20.3867113,5.97380187 L20.3867113,11.7665403 C20.3867113,12.2994722 19.930049,12.7319967 19.3673758,12.7319967 L19.3673758,12.7319967 C18.8047025,12.7319967 18.3480402,12.2994722 18.3480402,11.7665403 L18.3480402,11.7665403 Z M4.07734226,10.8010839 L3.0580067,10.8010839 C2.49533347,10.8010839 2.03867113,10.3685594 2.03867113,9.83562747 L2.03867113,7.90471467 C2.03867113,7.37178274 2.49533347,6.93925827 3.0580067,6.93925827 L4.07734226,6.93925827 L4.07734226,10.8010839 Z M6.11601339,5.71892138 C8.83458135,4.43100255 10.9762054,3.41727333 13.5276023,2.20852191 C13.867041,2.04825615 14.2706979,2.27900023 14.2706979,2.63815001 L14.2706979,14.1367357 C14.2706979,14.4958855 13.867041,14.7266296 13.5276023,14.5663638 C10.9772247,13.3576124 8.83458135,12.3429177 6.11601339,11.0559644 L6.11601339,5.71892138 Z M1.13686838e-13,6.93925827 L1.13686838e-13,10.8010839 C1.13686838e-13,11.8679132 0.912305331,12.7319967 2.03867113,12.7319967 L3.73790352,12.7319967 L13.4399394,16.8303591 C14.7885204,17.3999784 16.3093691,16.4654166 16.3093691,15.0664702 L16.3093691,1.93336684 C16.3093691,0.479389499 14.6774128,-0.452275927 13.3206772,0.225474466 L3.73790352,5.00834547 L2.03867113,5.00834547 C0.912305331,5.00834547 1.13686838e-13,5.87242895 1.13686838e-13,6.93925827 L1.13686838e-13,6.93925827 Z" id="volume_medium-[#930]"></path>
            </g>
        </g>
    </g>
</svg>