<svg width="32" height="35" viewBox="0 0 32 35" xmlns="http://www.w3.org/2000/svg"><title>icon-timer</title><g fill-rule="nonzero" fill="#92989E"><path d="M.091 19.205c0 8.616 7.132 15.616 15.909 15.616 8.777 0 15.909-7 15.909-15.616 0-4.278-1.768-8.196-4.633-11.008l1.25-1.227.579.568c.244.24.548.36.884.36.335 0 .64-.12.883-.36a1.212 1.212 0 0 0 0-1.735l-2.895-2.841a1.267 1.267 0 0 0-1.767 0 1.212 1.212 0 0 0 0 1.735l.579.568-1.372 1.346c-2.316-1.675-5.09-2.722-8.137-2.961V2.603h2.773c.701 0 1.25-.539 1.25-1.227 0-.688-.549-1.226-1.25-1.226h-8.228c-.701 0-1.25.538-1.25 1.226s.549 1.227 1.25 1.227h2.956V3.65C6.552 4.278.091 11.009.091 19.205zM16 6.043c7.406 0 13.44 5.923 13.44 13.192 0 7.27-6.034 13.192-13.44 13.192S2.56 26.504 2.56 19.235c0-7.3 6.034-13.192 13.44-13.192z"/><path d="M16 20.222h5.333c.701 0 1.25-.538 1.25-1.226s-.549-1.227-1.25-1.227H17.25v-6.312c0-.688-.549-1.226-1.25-1.226s-1.25.538-1.25 1.226v7.569c0 .658.549 1.196 1.25 1.196z"/></g></svg>