<?xml version="1.0" encoding="UTF-8" standalone="no"?>
<svg width="14px" height="17px" viewBox="0 0 14 17" version="1.1" xmlns="http://www.w3.org/2000/svg" xmlns:xlink="http://www.w3.org/1999/xlink">
    <!-- Generator: Sketch 47.1 (45422) - http://www.bohemiancoding.com/sketch -->
    <title>icon_home</title>
    <desc>Created with Sketch.</desc>
    <defs></defs>
    <g id="Symbols" stroke="none" stroke-width="1" fill="none" fill-rule="evenodd">
        <g id="icon_home" fill="#4A4A4A">
            <path d="M12.25,14.5054907 C12.25,14.9993821 11.858,15.2105385 11.375,15.2105385 L10.5,15.2105385 C10.017,15.2105385 9.625,14.9993821 9.625,14.5054907 L9.625,13.61076 C9.625,12.6220826 8.841875,11.6316156 7.875,11.6316156 L6.125,11.6316156 C5.158125,11.6316156 4.375,12.6220826 4.375,13.61076 L4.375,14.5054907 C4.375,14.9993821 3.983,15.2105385 3.5,15.2105385 L2.625,15.2105385 C2.142,15.2105385 1.75,14.9993821 1.75,14.5054907 L1.75,7.29127688 C1.75,7.1722777 1.796375,7.05864689 1.87775,6.9745422 L6.372625,2.37920519 C6.71475,2.02936548 7.268625,2.02936548 7.609875,2.37920519 L12.12225,6.99243682 C12.203625,7.07654151 12.25,7.19017231 12.25,7.30827677 L12.25,14.5054907 Z M14,6.82243798 C14,6.58533434 13.908125,6.35896746 13.745375,6.19075809 L8.23375,0.527112586 C7.55125,-0.173461573 6.442625,-0.176145765 5.7575,0.521744202 L0.25725,6.12723221 C0.09275,6.29544158 0,6.52270319 0,6.76070156 L0,15.4002215 C0,16.3888989 0.783125,17 1.75,17 L4.375,17 C5.341875,17 6.125,16.3888989 6.125,15.4002215 L6.125,14.5054907 C6.125,14.0115994 6.517,13.61076 7,13.61076 C7.483,13.61076 7.875,14.0115994 7.875,14.5054907 L7.875,15.4002215 C7.875,16.3888989 8.658125,17 9.625,17 L12.25,17 C13.216875,17 14,16.3888989 14,15.4002215 L14,6.82243798 Z" id="home-[#1393]"></path>
        </g>
    </g>
</svg>