<?xml version="1.0" encoding="UTF-8" standalone="no"?>
<svg width="17px" height="19px" viewBox="0 0 17 19" version="1.1" xmlns="http://www.w3.org/2000/svg" xmlns:xlink="http://www.w3.org/1999/xlink">
    <!-- Generator: Sketch 47.1 (45422) - http://www.bohemiancoding.com/sketch -->
    <title>icon_refresh_page</title>
    <desc>Created with Sketch.</desc>
    <defs></defs>
    <g id="Symbols" stroke="none" stroke-width="1" fill="none" fill-rule="evenodd">
        <g id="icon_refresh_page" fill="#4A4A4A">
            <path d="M14.8781035,11.4622164 C14.3693751,14.9550311 10.9703864,17.5358506 7.16612137,16.7452437 C4.75046108,16.2428019 2.78700387,14.3100901 2.27934193,11.9203251 C1.41226386,7.8342914 4.25773038,4.22219962 8.52379711,4.22219962 L8.52379711,6.33329943 L13.8563805,3.16664972 L8.52379711,0 L8.52379711,2.11109981 C3.19121369,2.11109981 -0.892478694,6.84313004 0.168705407,12.2496567 C0.815014518,15.5419168 3.50050353,18.1955693 6.82696907,18.8352325 C11.8683934,19.8042273 16.3306992,16.3779123 16.9898066,11.7440482 C17.079394,11.1149405 16.5663994,10.5554991 15.9254229,10.5554991 L15.9264894,10.5554991 C15.3964306,10.5554991 14.9538262,10.9428859 14.8781035,11.4622164" id="arrow_repeat-[#235]"></path>
        </g>
    </g>
</svg>