<svg width="28" height="28" viewBox="0 0 44 44" fill="none" xmlns="http://www.w3.org/2000/svg">
	<path d="M5.58801 29.339L13.3629 21.5593C14.3379 20.5845 15.6191 20.0971 16.9003 20.0971C17.8628 20.0971 18.8253 20.372 19.6565 20.9281L25.0002 15.5854V10.9988L33.0001 5L37 8.99922L31.0001 16.9977H26.4127L21.069 22.3404C22.3565 24.2837 22.144 26.9207 20.4315 28.6329L12.6504 36.4126C12.2629 36.8 11.7504 37 11.2379 37C10.7254 37 10.2129 36.8063 9.82544 36.4126L5.58176 32.1697C4.80677 31.3823 4.80677 30.1201 5.58801 29.339V29.339ZM27.0002 14.8793V14.998H30.0001L34.3563 9.18668L32.8126 7.64323L27.0002 11.9986V14.8793ZM11.2442 34.9941L19.019 27.2144C19.5878 26.6458 19.9003 25.8959 19.9003 25.0961C19.9003 24.2962 19.5878 23.5401 19.019 22.9777C18.4503 22.4091 17.7003 22.0967 16.9003 22.0967C16.1003 22.0967 15.3441 22.4091 14.7816 22.9777L7.00049 30.7512L11.2442 34.9941ZM33.0001 31.9947C33.0001 32.5446 32.5501 32.9945 32.0001 32.9945C31.4501 32.9945 31.0001 32.5446 31.0001 31.9947C31.0001 31.4448 31.4501 30.9949 32.0001 30.9949C32.5501 30.9949 33.0001 31.4448 33.0001 31.9947ZM19.7003 9.18043C18.2816 7.76196 16.4128 6.99961 14.4629 6.99961C14.0316 6.99961 13.6004 7.0371 13.1691 7.11209L17.5003 11.4487L16.6378 16.6352L11.4442 17.4976L7.11298 13.1672C6.69424 15.5542 7.44423 17.9662 9.1817 19.6971C9.73794 20.2533 10.3754 20.6969 11.0567 21.0406L9.58169 22.5153C8.9317 22.1279 8.31921 21.6655 7.76922 21.1094C5.40676 18.7473 4.47553 15.398 5.28801 12.1549C5.43176 11.5612 5.89426 11.0926 6.48175 10.9301C7.07549 10.7676 7.71297 10.9301 8.15047 11.3675L12.1442 15.3605L14.9066 14.8981L15.3691 12.1361L11.3754 8.14314C10.9442 7.71197 10.7754 7.07459 10.9379 6.48721C11.1004 5.89358 11.5754 5.43741 12.1692 5.28744C15.4004 4.48135 18.7503 5.40617 21.119 7.76821C21.9252 8.5743 22.5502 9.51162 23.0002 10.5177V14.7543L21.619 16.1353C22.219 13.6108 21.519 10.9988 19.7003 9.18043V9.18043ZM30.3126 34.1881C31.3501 35.2253 33.1626 35.2253 34.2 34.1881C35.2688 33.1195 35.2688 31.3699 34.2 30.3013L25.0689 21.1718L26.4814 19.7596L35.6125 28.8891C37.4625 30.7387 37.4625 33.7506 35.6125 35.6065C34.7188 36.5001 33.5251 36.9938 32.2563 36.9938C30.9876 36.9938 29.7939 36.5001 28.9001 35.6003L22.5377 29.2453C22.9565 28.6704 23.2752 28.0393 23.5065 27.3831L30.3126 34.1881Z" fill="#999999"/>
	<path d="M4.51312 0H37.6093C40.1009 0 42.1224 2.01562 42.1224 4.5V17H39.1137V4.5C39.1137 3.675 38.4367 3 37.6093 3H4.51312C3.68571 3 3.00875 3.675 3.00875 4.5V37.5C3.00875 38.325 3.68571 39 4.51312 39H37.6093C38.4367 39 39.1137 38.325 39.1137 37.5V28H42.1224V37.5C42.1224 39.9844 40.1009 42 37.6093 42H4.51312C2.0215 42 0 39.9844 0 37.5V4.5C0 2.01562 2.0215 0 4.51312 0Z" fill="#999999"/>
	<path d="M30.8074 19H41.1926C41.911 19 42.2702 19.8924 41.7617 20.4154L36.5711 25.7572C36.2563 26.0809 35.7437 26.0809 35.4289 25.7572L30.2383 20.4154C29.7298 19.8924 30.089 19 30.8074 19Z" fill="#999999"/>
</svg>
