<?xml version="1.0" encoding="UTF-8" standalone="no"?>
<svg width="16px" height="16px" viewBox="0 0 16 16" version="1.1" xmlns="http://www.w3.org/2000/svg" xmlns:xlink="http://www.w3.org/1999/xlink">
    <!-- Generator: Sketch 47.1 (45422) - http://www.bohemiancoding.com/sketch -->
    <title>icon_arrow_right</title>
    <desc>Created with Sketch.</desc>
    <defs></defs>
    <g id="Symbols" stroke="none" stroke-width="1" fill="none" fill-rule="evenodd">
        <g id="icon_arrow_right" fill="#4A4A4A">
            <path d="M8.90214445,0.234194549 C8.5896062,-0.0780648498 8.08362996,-0.0780648498 7.77189104,0.234194549 C7.45935279,0.546453948 7.45935279,1.05197876 7.77189104,1.36343954 L12.9195799,6.51372308 C13.171369,6.76528756 12.9931183,7.20133265 12.6374162,7.20133265 L0.81291918,7.20133265 C0.371688711,7.20133265 0,7.5527243 0,7.9935611 L0,7.99675557 C0,8.43759237 0.371688711,8.79856743 0.81291918,8.79856743 L12.6374162,8.79856743 C12.9931183,8.79856743 13.171369,9.22263326 12.9195799,9.47419774 L7.74711179,14.639655 C7.43457354,14.9511158 7.43457354,15.4550434 7.74711179,15.7673028 L7.74711179,15.7665041 C8.05885071,16.0779649 8.56482696,16.0779649 8.87736521,15.7657055 L15.5317921,9.11721577 L15.5317921,9.11721577 C16.1560693,8.49349558 16.1560693,7.48164735 15.5317921,6.85792717 C15.3871133,6.71417604 8.75746562,0.0896448019 8.90214445,0.234194549" id="arrow_right-[#363]"></path>
        </g>
    </g>
</svg>