<svg xmlns="http://www.w3.org/2000/svg" viewBox="0 0 533.58 175.91"><defs><style>.cls-1{fill:#92989e}.cls-2{fill:#f6f6f6}.cls-3{fill:#ddd}.cls-4{fill:#fff}</style></defs><title>Insert_usb_accessibility_illustration</title><g id="Layer_3" data-name="Layer 3"><g id="USB"><path class="cls-1" d="M397.25 102.43h-8.73v-10.2h8.73zm-5.89-2.84h3v-4.51h-3zM397.35 86.33h-8.73v-10.2h8.73zm-5.89-2.84h3V79h-3z"/><path class="cls-1" d="M506.62 60.3h-84.8a11.91 11.91 0 0 0-11.55 9.09h-37.16V109h37.16a11.91 11.91 0 0 0 11.55 9.09h84.8c14.62 0 26.51-13 26.51-28.92s-11.9-28.87-26.51-28.87zM375.95 72.23h34v34h-34zm130.67 43.06h-84.8a9.06 9.06 0 0 1-9.05-9.05v-34a9.06 9.06 0 0 1 9.05-9.05h84.8c13.05 0 23.67 11.7 23.67 26.07s-10.62 26.03-23.67 26.03z"/><path class="cls-2" d="M450.73 76.51v7.69h7.68v-2.13h6.94l3.58 6.93H448v-3.5l-9 5.18 9 5.18v-3.45h31l-3.91 5.89h-6.44a4.14 4.14 0 1 0 0 3.44H477l6.19-9.32H495a5.17 5.17 0 1 0 0-3.42h-22.19l-5.37-10.33h-9v-2.16z"/></g><g id="Laptop"><path class="cls-1" d="M278.32 154H40.8V8.21h237.52zm-234.67-2.82h231.82V11.06H43.65z"/><path class="cls-1" d="M285.63 162.36H33.48V9.67a9.74 9.74 0 0 1 9.73-9.73H275.9a9.74 9.74 0 0 1 9.73 9.73zm-249.3-2.84h246.46V9.67a6.89 6.89 0 0 0-6.89-6.89H43.21a6.89 6.89 0 0 0-6.89 6.89z"/><path class="cls-1" d="M309.31 175.84H9.8a7.62 7.62 0 0 1-5.72-2.4C.14 169.32.45 161.22.46 160.88l.06-1.36h318.07l.06 1.36c0 .34.33 8.44-3.62 12.57a7.62 7.62 0 0 1-5.72 2.39zm-306-13.48c.08 2.25.55 6.74 2.83 9.12A4.82 4.82 0 0 0 9.8 173h299.51a4.82 4.82 0 0 0 3.66-1.51c2.28-2.38 2.74-6.87 2.83-9.12z"/><path class="cls-1" d="M183 163.73s0 4.84-3.85 4.84H140c-3.85 0-3.85-4.84-3.85-4.84z"/></g><path class="cls-3" d="M166.48 75.47l-1 2.49-.58 1.55 1.25 1.08 32.41 28-14.17 11-23.91-20.69-2.48-2.13-1.21 3-9.68 24.26-15.89-3.21 13.42-33.62.5-1.25 21.32-10.53m4.4-4.77l-29.58 14.7 1.19 1.06-14.42 36.18 20.52 4.14L159 100.66l25.33 22 17.91-13.94-34.58-29.92 3.23-8.1z"/><path class="cls-3" d="M181.47 44.15l-20.44-4.13-9.81 24.56-16.46-14.23-17.83 13.89 24.56 21.28 29.05-13.94 10.93-27.43z"/><circle class="cls-3" cx="188.51" cy="67.53" r="7.47"/><path class="cls-1" d="M432.85 95.83a4.77 4.77 0 0 1-3.85-1.44 6.69 6.69 0 0 1-1.16-4.39c0-5.08 2.8-6.15 5.14-6.15 3.32 0 5.08 1.81 5.08 5.25l-.26 2.45h-6.06a1 1 0 0 0 .26.45 1.63 1.63 0 0 0 1.09.31c1.28 0 2.44 0 3.45-.12l1.12-.12.06 3-.39.09a19.25 19.25 0 0 1-4.48.67zm1.41-7.45a1.75 1.75 0 0 0-.27-.94 1.28 1.28 0 0 0-1-.31 1.26 1.26 0 0 0-1 .33 1.8 1.8 0 0 0-.29.92z"/><path class="cls-4" d="M433 84.32q4.58 0 4.58 4.75l-.21 2h-6.17a1.82 1.82 0 0 0 .51 1.4 2.09 2.09 0 0 0 1.42.43q2 0 3.49-.13l.59-.06v2.08a18.66 18.66 0 0 1-4.37.59 4.29 4.29 0 0 1-3.44-1.26 6.3 6.3 0 0 1-1.07-4.1q0-5.65 4.64-5.65m-1.83 4.56h3.63a2.87 2.87 0 0 0-.4-1.75 2.2 2.2 0 0 0-2.8 0 2.9 2.9 0 0 0-.43 1.73m1.86-5.59c-4.91 0-5.64 4.17-5.64 6.65a7.15 7.15 0 0 0 1.31 4.74 5.24 5.24 0 0 0 4.21 1.61 19.74 19.74 0 0 0 4.6-.62l.78-.19V92h.08l.1-.89.21-2V89c0-3.71-2-5.75-5.58-5.75zm-.67 4.56a.49.49 0 0 1 .06-.11c0-.05.22-.14.63-.14s.59.09.62.12a.49.49 0 0 1 .06.12z"/><path class="cls-1" d="M444.65 95.58l-1.4-2.64-1.38 2.64h-4.15l3.15-5.77-3.15-5.73h4.15l1.38 2.67 1.4-2.67h4.17l-3.27 5.65 3.25 5.85h-4.15z"/><path class="cls-4" d="M448 84.58l-3 5.15 3 5.35h-3l-1.7-3.21-1.68 3.21h-3l2.88-5.27-2.88-5.23h3l1.68 3.25 1.7-3.25h3m1.74-1h-5.34l-.28.54-.81 1.55-.8-1.54-.28-.54h-5.3l.82 1.48 2.61 4.75-2.61 4.79-.81 1.48h5.29l.28-.54.8-1.53.81 1.53.28.53h5.31l-.83-1.49-2.71-4.86 2.7-4.65.87-1.5z"/><path class="cls-1" d="M458.18 95.83a8.48 8.48 0 0 1-1.82-.16 4.21 4.21 0 0 1-1.22-.51 7.45 7.45 0 0 1-3 .67c-2.46 0-3.75-1.36-3.75-3.94a3.32 3.32 0 0 1 1.09-2.78 5.48 5.48 0 0 1 3-.93l1.78-.13v-.19c0-.4-.1-.5-.11-.51a1 1 0 0 0-.63-.13l-4.43.19-.09-2.85.39-.1a16.94 16.94 0 0 1 4.4-.63 4.6 4.6 0 0 1 3.26 1 4 4 0 0 1 1 3.05v4.37a1.27 1.27 0 0 0 .09.43 1 1 0 0 0 .21.06l.41.09-.12 3zm-5.29-4.71c-.52 0-.72.25-.72.76s.23.65.53.65a6.28 6.28 0 0 0 1.56-.22V91z"/><path class="cls-4" d="M453.76 84.32a4.18 4.18 0 0 1 2.92.84 3.54 3.54 0 0 1 .89 2.69v4.37a1.68 1.68 0 0 0 .17.7.78.78 0 0 0 .53.28l-.08 2.12a8 8 0 0 1-1.71-.15 3.85 3.85 0 0 1-1.29-.59 7 7 0 0 1-3.09.73q-3.26 0-3.25-3.44a2.85 2.85 0 0 1 .9-2.38 5.07 5.07 0 0 1 2.77-.83l2.25-.17v-.65a1.11 1.11 0 0 0-.29-.89 1.49 1.49 0 0 0-.95-.24l-3.95.17-.08-2a16.36 16.36 0 0 1 4.27-.61M452.7 93a6.8 6.8 0 0 0 1.74-.25l.32-.08v-2.21l-1.91.17a1.14 1.14 0 0 0-1.18 1.26q0 1.16 1 1.15m1.06-9.71a17.43 17.43 0 0 0-4.53.64l-.77.21v.8l.08 2v1h1l1.69-.07a5 5 0 0 0-2.18.9 3.79 3.79 0 0 0-1.29 3.17c0 2.87 1.51 4.44 4.25 4.44a7.9 7.9 0 0 0 3-.61 4.55 4.55 0 0 0 1.14.44 8.84 8.84 0 0 0 1.94.17h1v-1l.08-2.12v-.85l-.72-.15v-4.4a4.49 4.49 0 0 0-1.21-3.42 5.05 5.05 0 0 0-3.6-1.11zm-1.06 8.34a.84.84 0 0 1 .23 0l.82-.07v.37a5.3 5.3 0 0 1-1.06.12 1.08 1.08 0 0 1 0-.15.54.54 0 0 1 0-.22z"/><path class="cls-1" d="M472.07 95.58v-6.11a4.45 4.45 0 0 0-.25-1.78c-.07-.16-.22-.35-.72-.35a5.22 5.22 0 0 0-1.43.25q.06 1.31.06 2v5.94h-3.81v-5.9a5.54 5.54 0 0 0-.23-2c0-.1-.14-.34-.74-.34a4.15 4.15 0 0 0-1.37.24v8h-3.81V84.08h3.79v.26a4.72 4.72 0 0 1 2-.51 4.05 4.05 0 0 1 2.72.88 8.09 8.09 0 0 1 3.44-.88 3.69 3.69 0 0 1 3.3 1.43 7.47 7.47 0 0 1 .89 4.13v6.19z"/><path class="cls-4" d="M471.68 84.32a3.22 3.22 0 0 1 2.89 1.21 7.1 7.1 0 0 1 .81 3.85v5.69h-2.81v-5.6a5 5 0 0 0-.29-2 1.16 1.16 0 0 0-1.18-.64 5.8 5.8 0 0 0-1.64.29l-.32.1q.08 1.57.08 2.39v5.44h-2.81v-5.4a6.16 6.16 0 0 0-.27-2.19 1.16 1.16 0 0 0-1.2-.64 4.65 4.65 0 0 0-1.62.29l-.25.08v7.85h-2.81V84.58h2.79v.59a5.19 5.19 0 0 1 2.48-.84 3.42 3.42 0 0 1 2.63 1 7.86 7.86 0 0 1 3.53-1m0-1a8.34 8.34 0 0 0-3.37.8 4.66 4.66 0 0 0-2.78-.8 4.55 4.55 0 0 0-1.48.27h-4.79v12.5h4.81V88a3.56 3.56 0 0 1 .87-.11.68.68 0 0 1 .29 0 5.69 5.69 0 0 1 .18 1.79v6.4h4.81v-6.44-1.66a4 4 0 0 1 .92-.13.54.54 0 0 1 .26 0 4 4 0 0 1 .21 1.58v6.61h4.81v-6.65a7.93 7.93 0 0 0-1-4.41 4.16 4.16 0 0 0-3.72-1.65z"/><path class="cls-1" d="M477.25 91.09h4.02v4.49h-4.02z"/><path class="cls-4" d="M480.78 91.59v3.49h-3v-3.49h3m1-1h-5v5.49h5v-5.49z"/><path class="cls-1" d="M486.84 95.83a4.06 4.06 0 0 1-3.6-1.54 8 8 0 0 1-1-4.47 6.93 6.93 0 0 1 1.2-4.5 4.47 4.47 0 0 1 3.65-1.49 11.17 11.17 0 0 1 1.77.19v-4.14h3.81v15.7h-3.79v-.18a5.71 5.71 0 0 1-2.04.43zm.46-8.57c-.3 0-1.2 0-1.2 2.52a4.63 4.63 0 0 0 .32 2.09.82.82 0 0 0 .81.43 6.75 6.75 0 0 0 1.63-.22v-4.7a10.33 10.33 0 0 0-1.55-.12z"/><path class="cls-4" d="M492.18 80.38v14.7h-2.79v-.44a6.15 6.15 0 0 1-2.54.69 3.59 3.59 0 0 1-3.2-1.33 7.58 7.58 0 0 1-.9-4.19 6.54 6.54 0 0 1 1.08-4.18 4 4 0 0 1 3.26-1.31 11.59 11.59 0 0 1 1.87.21l.4.08v-4.23h2.81m-4.95 12.43a7.29 7.29 0 0 0 1.84-.25l.29-.06V87a11.68 11.68 0 0 0-2.06-.21q-1.7 0-1.7 3a5.21 5.21 0 0 0 .38 2.33 1.31 1.31 0 0 0 1.25.69m5.95-13.43h-4.81v4.05a9.49 9.49 0 0 0-1.27-.1 5 5 0 0 0-4 1.68 7.39 7.39 0 0 0-1.31 4.81 8.41 8.41 0 0 0 1.08 4.75 4.53 4.53 0 0 0 4 1.76 5.58 5.58 0 0 0 1.59-.25h4.74v-16.7zm-5.95 12.43c-.28 0-.32-.08-.37-.17a4.21 4.21 0 0 1-.26-1.85c0-.76.09-2 .7-2a9 9 0 0 1 1.06.07v3.86a5.91 5.91 0 0 1-1.13.12z"/><path class="cls-1" d="M499.86 95.58l-1.4-2.64-1.38 2.64h-4.15l3.15-5.77-3.15-5.73h4.15l1.38 2.67 1.4-2.67h4.17l-3.28 5.65 3.26 5.85h-4.15z"/><path class="cls-4" d="M503.16 84.58l-3 5.15 3 5.35h-3l-1.7-3.21-1.68 3.21h-3l2.88-5.27-2.88-5.23h3l1.68 3.25 1.7-3.25h3m1.74-1h-5.34l-.28.54-.81 1.55-.8-1.54-.28-.54h-5.3l.82 1.48 2.61 4.75-2.62 4.78-.81 1.48h5.29l.28-.54.8-1.53.81 1.53.28.53h5.31l-.86-1.48-2.71-4.86 2.7-4.65.87-1.5z"/><path class="cls-1" d="M508.52 95.83a4.77 4.77 0 0 1-3.83-1.44A6.69 6.69 0 0 1 503.5 90c0-5.08 2.8-6.15 5.14-6.15 3.32 0 5.08 1.81 5.08 5.25l-.26 2.45h-6.06a1 1 0 0 0 .28.52 1.63 1.63 0 0 0 1.09.31c1.28 0 2.44 0 3.45-.12l1.12-.12.06 3-.39.09a19.25 19.25 0 0 1-4.49.6zm1.41-7.45a1.75 1.75 0 0 0-.27-.94 1.28 1.28 0 0 0-1-.31 1.26 1.26 0 0 0-1 .33 1.8 1.8 0 0 0-.29.92z"/><path class="cls-4" d="M508.64 84.32q4.58 0 4.58 4.75L513 91h-6.17a1.82 1.82 0 0 0 .51 1.4 2.09 2.09 0 0 0 1.42.43q2 0 3.49-.13l.59-.06v2.08a18.66 18.66 0 0 1-4.37.59 4.29 4.29 0 0 1-3.44-1.26A6.3 6.3 0 0 1 504 90q0-5.65 4.64-5.65m-1.83 4.56h3.63a2.87 2.87 0 0 0-.4-1.75 2.2 2.2 0 0 0-2.8 0 2.9 2.9 0 0 0-.43 1.73m1.83-5.56c-4.91 0-5.64 4.17-5.64 6.65a7.15 7.15 0 0 0 1.31 4.74 5.24 5.24 0 0 0 4.21 1.61 19.74 19.74 0 0 0 4.6-.62l.78-.19V92h.08l.1-.89.21-2V89c0-3.71-2-5.75-5.58-5.75zm-.64 4.55a.49.49 0 0 1 .06-.11c0-.05.22-.14.63-.14s.59.09.62.12a.49.49 0 0 1 .06.12z"/><path class="cls-1" d="M353.61 80.14h-23.33v-6.51A2 2 0 0 0 327 72.1l-18.54 15.58a2 2 0 0 0 0 3.06L327 106.33a2 2 0 0 0 3.29-1.53v-6.51h23.33a2 2 0 0 0 2-2V82.14a2 2 0 0 0-2.01-2z"/></g></svg>