<svg xmlns="http://www.w3.org/2000/svg" viewBox="0 0 1696 1194"><defs><style>.cls-1{fill:#f6f6f6;}.cls-2,.cls-3{fill:#ebeced;}.cls-3{fill-rule:evenodd;}</style></defs><g id="Gray_bg" data-name="Gray bg"><rect class="cls-1" width="1696" height="1194"/></g><g id="X"><circle class="cls-2" cx="720.06" cy="1151.23" r="11.25"/><path class="cls-3" d="M47.09,1113.14,42.43,1194H0V980.12L55.56,999.7l-1.82,56.37,67.58-11.61,24.76,52.41Z"/><circle class="cls-2" cx="512.42" cy="1102.47" r="22"/><ellipse class="cls-2" cx="637.74" cy="976.9" rx="5.08" ry="5"/><circle class="cls-2" cx="456.39" cy="989.4" r="8.5"/><circle class="cls-2" cx="316.54" cy="1035.27" r="14.25"/><circle class="cls-2" cx="310.46" cy="966.2" r="11.3"/><circle class="cls-2" cx="199.2" cy="980.96" r="8"/><circle class="cls-2" cx="106.71" cy="1144.2" r="19.75"/><polygon class="cls-3" points="245.22 1008.66 286.52 997.89 286.52 1068.28 371.74 1090.43 346.58 1127.22 284.26 1109.57 283.51 1158.73 241.84 1167.39 241.84 1099.44 179.9 1079.91 203.93 1043.13 243.72 1055.51 245.22 1008.66"/><polygon class="cls-2" points="359.72 1179.78 425.42 1172.64 398.01 1106.83 449.82 1071.28 490.42 1165.88 623.88 1150.87 621.05 1194 357.85 1194 359.72 1179.78"/><polygon class="cls-3" points="442.31 1032.54 435.56 1007.84 481.73 1007.84 493.37 954.9 517.77 968.04 509.14 1007.84 541.8 1006 549.31 1032.54 502.75 1032.54 494.5 1072.78 467.47 1058.14 474.22 1032.54 442.31 1032.54"/><polygon class="cls-3" points="731.26 1045.8 764.42 1035.19 770.05 1091.93 824.86 1099.06 811.34 1132.64 775.68 1126.09 779.06 1165.88 746.77 1174.89 741.52 1124.47 667.56 1109.95 682.58 1078.41 734.38 1086.3 731.26 1045.8"/><circle class="cls-2" cx="838.17" cy="1035.83" r="3"/><polygon class="cls-2" points="827.11 1043.88 847.92 1045.38 856.77 1025.11 865.03 1032.54 859.4 1048.38 873.29 1051.38 873.29 1063.4 853.39 1060.93 844 1076.16 835.17 1065.65 841.17 1057.02 827.11 1055.14 827.11 1043.88"/><polygon class="cls-3" points="416.03 914.36 401.39 945.89 365.35 940.64 371.74 980.12 338.7 988.96 332.32 936.51 257.61 927.12 275.82 893.34 326.31 901.59 324.6 861.05 355.97 849.46 362.35 907.23 416.03 914.36"/><polygon class="cls-3" points="607.12 976.89 621.38 968.42 631.15 991.32 665.31 988.96 665.31 1006.71 637.74 1006.71 646.54 1024.73 632.66 1033.74 621.01 1010.46 594.36 1011.22 597.36 995.45 614.63 994.32 607.12 976.89"/><circle class="cls-2" cx="160.44" cy="829.79" r="6"/><circle class="cls-2" cx="273.14" cy="821.21" r="4.25"/><circle class="cls-2" cx="393.89" cy="785.36" r="2.5"/><polygon class="cls-3" points="382.62 797.23 382.62 785.78 397.39 796.23 409.28 782.86 416.03 790.05 405.9 799.96 416.03 803.99 412.28 811.87 399.33 805.11 389.39 814.96 384.88 806.96 390.63 802.11 382.62 797.23"/><polygon class="cls-3" points="211.06 956.78 196.79 936.13 168.26 948.52 166.01 922.99 137.1 916.99 143.44 956.78 100.69 972.96 115.33 992.82 147.61 980.12 150.62 1021.02 179.9 1024.73 172.02 970.86 211.06 956.78"/><circle class="cls-2" cx="94.93" cy="801.16" r="17"/><polygon class="cls-2" points="82.92 907.86 121.21 878.2 48.76 818.79 78.42 746.8 33.37 736.29 12.34 786.08 0 776.46 0 913.86 6.71 916.49 28.48 861.3 82.92 907.86"/><polygon class="cls-2" points="166.44 790.1 191.19 790.1 201.67 821.21 223.45 805.65 238.84 816.96 211.06 838.15 220.07 867.81 199.19 870.43 193.04 849.46 170.14 865.18 154.44 851.29 184.4 830.27 166.44 790.1"/><polygon class="cls-2" points="318.43 801.16 329.69 812.62 308.67 825.46 316.55 847.53 301.16 849.46 295.53 835.79 280.51 847.53 268.88 835.79 291.77 821.21 277.38 793.48 295.15 793.48 303.04 814.96 318.43 801.16"/><circle class="cls-2" cx="67.23" cy="684.95" r="3"/><circle class="cls-2" cx="149.19" cy="679.7" r="5.25"/><circle class="cls-2" cx="20.77" cy="621.81" r="10.5"/><polygon class="cls-2" points="25.14 562.5 41.75 592.35 0 602.2 0 570.95 25.14 562.5"/><polygon class="cls-2" points="186.44 629.58 186.44 648.45 168.42 650.98 179.68 667.31 165.89 679.95 150.96 654.76 116.33 664.21 116.33 645.07 141.94 641.13 131.25 622.82 145.61 611 159.41 635.5 186.44 629.58"/><polygon class="cls-2" points="91.58 687.95 91.58 700.18 73.28 706.94 85.11 718.21 75.53 727.78 61.61 711.17 44.84 719.61 44.84 705.82 54.98 702.16 44.84 691.46 54.14 681.95 65.96 696.81 91.58 687.95"/><circle class="cls-2" cx="1518.9" cy="488.99" r="5"/><circle class="cls-2" cx="1571.14" cy="372.51" r="15.5"/><circle class="cls-2" cx="1649.52" cy="547.04" r="10.5"/><circle class="cls-2" cx="1387.86" cy="295.72" r="5.5"/><polygon class="cls-2" points="1392.08 230.41 1411.68 223.11 1415.86 257 1448.93 260.69 1443.29 278.59 1420.95 276.82 1424.91 299.76 1405.37 307.72 1400.38 274.57 1357.03 271.89 1363.05 253.6 1395.42 255.13 1392.08 230.41"/><circle class="cls-2" cx="1559.88" cy="26.76" r="20"/><circle class="cls-2" cx="1467.89" cy="188.2" r="8"/><polygon class="cls-2" points="1385.06 9.08 1424.13 4.8 1424.17 72.14 1485.81 87.5 1463.13 123.94 1425.38 110.62 1423.26 159.42 1383.68 165.56 1383.4 100.89 1298.46 75.93 1321.58 40.61 1384.14 58.95 1385.06 9.08"/><polygon class="cls-2" points="1490.86 147.48 1516.83 147.34 1521.13 188.45 1551.33 176.22 1564.1 195.18 1524.48 210.58 1528.19 250.2 1501.99 249.32 1499.5 220.94 1473.54 230.02 1456.9 211.76 1495.57 197.92 1490.86 147.48"/><circle class="cls-2" cx="1230.58" cy="272.33" r="4.5"/><circle class="cls-2" cx="1301.09" cy="130.79" r="11"/><circle class="cls-2" cx="1350.48" cy="134.87" r="14"/><circle class="cls-2" cx="1057.23" cy="210.9" r="4"/><circle class="cls-2" cx="1102.87" cy="109.07" r="21"/><circle class="cls-2" cx="953.86" cy="113.02" r="8.5"/><path class="cls-2" d="M896.39,0A22,22,0,0,1,874.6,18.92,22,22,0,0,1,852.81,0Z"/><circle class="cls-2" cx="676.65" cy="126.96" r="2.75"/><polygon class="cls-3" points="641.85 110.41 642.78 98.77 661.18 102.9 670.19 87.7 679.39 95.58 673.19 106.52 685.77 107.97 685.77 118.48 668.5 117.17 658.55 136.13 648.98 128.62 656.67 113.04 641.85 110.41"/><polygon class="cls-3" points="693.53 14.84 676.96 41.37 731.85 52.56 737.24 108.84 770.97 99.46 766.37 56.74 820.06 64.14 832.84 35 762.22 25.25 760.22 0 726.88 0 728.06 21.03 693.53 14.84"/><polygon class="cls-3" points="917.91 30.47 942.15 44.21 934.69 73.44 970.22 69.45 974.26 94.1 930.02 95.51 918.51 146.82 891.25 132.68 902.76 94.11 866.4 94.7 861.15 69.86 908.01 69.05 917.91 30.47"/><polygon class="cls-3" points="1032.93 179.67 1059.23 177.76 1049.88 158.06 1065.13 148.96 1075.66 175.47 1100.51 172.47 1099.23 188.57 1081.29 190.2 1087.91 205.3 1074.66 215.9 1065.13 193.96 1031.23 196.41 1032.93 179.67"/><polygon class="cls-3" points="1002.52 0 993.23 60.76 1126.04 46.23 1167.2 139.73 1220.86 103.56 1191.72 38.42 1256.91 33.65 1260.81 0 1002.52 0"/><polygon class="cls-3" points="1188.97 246.02 1203 244.43 1207.39 258.73 1221.92 248.66 1233.33 255.79 1212.4 271.03 1221.58 299.67 1206.44 300.22 1201.2 279.67 1185.44 289.97 1175.94 280.63 1195.79 268.06 1188.97 246.02"/><polygon class="cls-3" points="1249.18 188.23 1254.31 244.34 1286.84 234.23 1282.57 193.11 1338.01 199.45 1350.48 168.44 1280.25 160.58 1275.02 108.14 1242.65 116.65 1246.19 155.94 1211.79 150.71 1195.14 181.83 1249.18 188.23"/><polygon class="cls-3" points="1479.65 515.95 1479.95 531.91 1505.85 526.67 1519.22 551.72 1534.49 540.93 1523.59 521.83 1550.97 517.91 1551.03 499.96 1514.46 507.01 1501.5 483.11 1488.32 493.99 1497.5 511.63 1479.65 515.95"/><polygon class="cls-3" points="1695.84 495.46 1686.87 494.97 1685 562.29 1629.83 574.96 1642.47 604.06 1685.16 593.7 1684.79 629.22 1695.87 629.17 1695.84 495.46"/><polygon class="cls-3" points="1696 257.25 1696 278.84 1672.64 331.76 1696 350.68 1696 414 1653.56 377.5 1631.54 425.93 1588.85 419.38 1616.01 346.18 1543.22 287.49 1582.3 259.89 1635.92 305.94 1659.83 251.43 1696 257.25"/><polygon class="cls-3" points="1620.68 0 1618.31 57.95 1522.51 72.03 1543.88 125.87 1617.85 111.73 1613.39 169.5 1668.13 188.2 1676.49 102.96 1696 99.41 1696 45.84 1679.04 47.76 1681.54 0 1620.68 0"/><polygon class="cls-2" points="1283.45 376.99 1284.93 369.56 1276.15 365.99 1281.24 360.01 1276.27 353.52 1268.35 362.82 1255.41 357.57 1253.93 365.01 1263.23 368.78 1255.4 378.01 1260.36 384.52 1271.07 371.97 1283.45 376.99"/><ellipse class="cls-2" cx="1275.09" cy="379.55" rx="2.67" ry="2.72"/><polygon class="cls-2" points="1493.87 336.1 1500.41 339.91 1506.64 332.77 1510.64 339.53 1518.39 336.94 1512.17 326.42 1521.36 315.9 1514.8 312.08 1508.2 319.64 1502.03 309.24 1494.26 311.81 1502.64 326.02 1493.87 336.1"/><ellipse class="cls-2" cx="1494.17" cy="327.36" rx="2.67" ry="2.72" transform="translate(698.18 1633.53) rotate(-71)"/><polygon class="cls-2" points="1610.72 486.57 1618.66 478.97 1611.19 467.42 1622.21 464.54 1621.71 452.69 1604.54 457.16 1593.54 440.14 1585.59 447.75 1593.5 459.98 1576.5 464.44 1576.98 476.31 1600.16 470.3 1610.72 486.57"/><ellipse class="cls-2" cx="1598.64" cy="482.66" rx="3.94" ry="3.88" transform="translate(286.31 1515.32) rotate(-55)"/></g></svg>