<svg id="White_Transparent" data-name="White Transparent" xmlns="http://www.w3.org/2000/svg" viewBox="0 0 451 120"><defs><style>.cls-1{fill:#fff;}</style></defs><path class="cls-1" d="M160.22,85.05H142.8V33.32h17.42a36.45,36.45,0,0,1,11,1.41A13.12,13.12,0,0,1,178,39.36,19.13,19.13,0,0,1,181.29,47a57.82,57.82,0,0,1,.91,11.38,66.33,66.33,0,0,1-.84,11.6,22.33,22.33,0,0,1-3.18,8.23,13.16,13.16,0,0,1-6.73,5.25A33.16,33.16,0,0,1,160.22,85.05Zm11-20.5c.1-1.63.15-3.87.15-6.74a61.17,61.17,0,0,0-.31-6.9,13.28,13.28,0,0,0-1.44-4.72,6,6,0,0,0-3.39-2.93,19,19,0,0,0-6-.8H153.3V75.92h6.92c3.8,0,6.57-1,8.29-2.89Q170.71,70.67,171.25,64.55Z"/><path class="cls-1" d="M190.42,42.15V31.82h10.19V42.15Zm0,42.9V47h10.19v38Z"/><path class="cls-1" d="M244.55,89.81q0,6.5-5,9.62T226,102.55q-8.56,0-13.17-2.29T208.18,92q0-4.78,5.46-9.09a6.47,6.47,0,0,1-2.82-5.78q0-1.51,2.28-5l.68-1.06q-5.17-3.73-5.17-11T213,49.49q4.38-3.27,11.6-3.27a28.19,28.19,0,0,1,6.47.76l1.21.23,12.29-.35v8.19l-5.71-.46a9.46,9.46,0,0,1,1.67,5.17q0,7.62-3.88,10.5t-12.18,2.89a13.56,13.56,0,0,1-3.11-.3,9.6,9.6,0,0,0-.77,3.24,1.73,1.73,0,0,0,1.25,1.66,25.35,25.35,0,0,0,6.08.53q9.58.07,13.08,2.55C243.32,82.48,244.5,85.47,244.55,89.81Zm-26.37,1.1q0,3.27,8,3.27c5.35,0,8-1.26,8-3.8a2.53,2.53,0,0,0-1.38-2.63,19.23,19.23,0,0,0-5.78-.64l-6.84-.54A6.13,6.13,0,0,0,218.18,90.91Zm.61-31.16q0,5.59,5.82,5.6t5.82-5.6c0-3.72-1.94-5.59-5.82-5.59S218.79,56,218.79,59.75Z"/><path class="cls-1" d="M250.66,42.15V31.82h10.19V42.15Zm0,42.9V47h10.19v38Z"/><path class="cls-1" d="M271.21,85.05V33.32h33.47v9.09h-23V54.55h18.41v9H281.7v12.4h23V85Z"/><path class="cls-1" d="M308.78,47h10.91l6.08,11.82L331.94,47h10.91l-10.8,18.64,10.8,19.4H331.94l-6.17-11.64-6.08,11.64H308.78L319.2,66Z"/><path class="cls-1" d="M377.63,58.88V74.7a6,6,0,0,0,.61,2.55,2.77,2.77,0,0,0,1.9,1l-.3,7.68a28.63,28.63,0,0,1-6.2-.5A14,14,0,0,1,369,83.33,25.36,25.36,0,0,1,357.77,86Q346,86,346,73.52c0-4.06,1.1-6.94,3.28-8.64s5.51-2.7,10-3l8.18-.61V58.88a4,4,0,0,0-1.06-3.23,5.3,5.3,0,0,0-3.43-.91l-14.3.61-.3-7.08a59.39,59.39,0,0,1,15.45-2.21q7.34,0,10.58,3T377.63,58.88Zm-17.12,10c-2.84.26-4.26,1.77-4.26,4.55s1.24,4.17,3.72,4.18a24.56,24.56,0,0,0,6.32-.91l1.15-.3V68.22Z"/><path class="cls-1" d="M397.56,85.05h-10.2V47h10.12v2.13q5.25-3,9-3,6.17,0,9.51,3.57,7-3.57,12.79-3.57,7.51,0,10.46,4.37t2.93,14V85.05H432V64.74a18.19,18.19,0,0,0-1.07-7.19q-1.06-2.34-4.26-2.32a20.73,20.73,0,0,0-5.94,1.06l-1.13.38q.3,5.71.3,8.68v19.7h-10.2V65.45q0-5.62-1-7.94t-4.33-2.32a17.25,17.25,0,0,0-5.86,1.06l-.91.3Z"/><path class="cls-1" d="M66.91,51.74l-.74,1.84-.76,1.87L67,56.75l38.59,32.92L88.71,102.49,60.11,78.23l-3-2.5L55.7,79.31l-11.53,28.4L25.33,104l16-39.34.4-1L66.91,51.74m5.27-5.59L37.51,62.52l1.22,1L21.46,106l24.44,4.87L58.3,80.36l30.32,25.72L110,89.79,68.76,54.62l3.42-8.47Z"/><polygon class="cls-1" points="72.19 46.15 85.24 13.94 60.84 9.09 49.13 37.93 29.48 21.23 8.18 37.54 37.51 62.52 72.19 46.15"/><ellipse class="cls-1" cx="93.65" cy="41.41" rx="8.92" ry="8.78"/></svg>