<svg id="Logo" xmlns="http://www.w3.org/2000/svg" viewBox="0 0 477.35 112"><defs><style>.cls-1{fill:#a7015f;}.cls-2{fill:#dc2473;}.cls-3{fill:#333;}</style></defs><title>Logo-pink-text-black</title><polygon points="49.54 54.93 49.21 54.65 49.03 55.09 49.36 55.38 49.54 54.93"/><path class="cls-1" d="M14.37,106.65,40.87,112,54.28,78.33,87,106.7l23.13-18L65.53,50.09,69.7,39.63,31.46,58.55,33,59.92Zm34.84-52,.33.29-.18.44L49,55.09Z"/><polygon class="cls-2" points="83.37 5.33 56.97 0 44.3 31.73 23.04 13.34 0 31.29 31.72 58.77 69.25 40.77 83.37 5.33"/><circle class="cls-2" cx="92.46" cy="35.54" r="9.65"/><path class="cls-3" d="M167.24,83.55H148.08V26.65h19.16a40,40,0,0,1,12.13,1.55,14.48,14.48,0,0,1,7.41,5.1,21.1,21.1,0,0,1,3.64,8.37,63.3,63.3,0,0,1,1,12.51,73.32,73.32,0,0,1-.92,12.76A24.74,24.74,0,0,1,187,76a14.47,14.47,0,0,1-7.41,5.77A36.09,36.09,0,0,1,167.24,83.55ZM179.37,61q.17-2.68.17-7.41A68.09,68.09,0,0,0,179.2,46a14.48,14.48,0,0,0-1.59-5.19,6.62,6.62,0,0,0-3.72-3.22,20.41,20.41,0,0,0-6.65-.88h-7.61V73.51h7.61q6.28,0,9.12-3.18Q178.79,67.74,179.37,61Z"/><path class="cls-3" d="M200.46,36.36V25h11.21V36.36Zm0,47.2V41.71h11.21V83.55Z"/><path class="cls-3" d="M260,88.79q0,7.15-5.52,10.58t-14.94,3.43q-9.41,0-14.48-2.51T220,91.17q0-5.27,6-10a7.15,7.15,0,0,1-3.1-6.36q0-1.67,2.51-5.52l.75-1.17q-5.69-4.1-5.69-12.09t4.81-11.59q4.81-3.6,12.76-3.6a30.62,30.62,0,0,1,7.11.84l1.34.25L260,41.55v9l-6.28-.5a10.42,10.42,0,0,1,1.84,5.69q0,8.37-4.27,11.55t-13.39,3.18a15.86,15.86,0,0,1-3.43-.33,10.45,10.45,0,0,0-.84,3.56A1.88,1.88,0,0,0,235,75.52a27.64,27.64,0,0,0,6.69.59q10.54.08,14.39,2.8T260,88.79ZM231,90q0,3.6,8.83,3.6t8.83-4.18q0-2.26-1.51-2.89t-6.36-.71l-7.53-.59A6.72,6.72,0,0,0,231,90Zm.67-34.27q0,6.15,6.4,6.15t6.4-6.15q0-6.15-6.4-6.15T231.67,55.73Z"/><path class="cls-3" d="M266.73,36.36V25h11.21V36.36Zm0,47.2V41.71h11.21V83.55Z"/><path class="cls-3" d="M289.33,83.55V26.65h36.82v10H300.87V50h20.25v9.87H300.87V73.51h25.27v10Z"/><path class="cls-3" d="M330.66,41.71h12l6.69,13,6.78-13h12l-11.88,20.5,11.88,21.34h-12l-6.78-12.8-6.69,12.8h-12l11.46-21Z"/><path class="cls-3" d="M406.39,54.77V72.17a6.65,6.65,0,0,0,.67,2.8,3.1,3.1,0,0,0,2.09,1.13l-.33,8.45A31.75,31.75,0,0,1,402,84a15.32,15.32,0,0,1-5.15-2.34,27.86,27.86,0,0,1-12.3,2.93q-13,0-13-13.72,0-6.69,3.6-9.5t11-3.31l9-.67V54.77q0-2.59-1.17-3.56a5.93,5.93,0,0,0-3.77-1l-15.73.67-.33-7.78a65.11,65.11,0,0,1,17-2.43q8.07,0,11.63,3.35T406.39,54.77Zm-18.83,11q-4.69.42-4.69,5t4.1,4.6a27.12,27.12,0,0,0,6.95-1l1.26-.33v-9Z"/><path class="cls-3" d="M428.32,83.55H417.1V41.71h11.13v2.34q5.77-3.35,9.87-3.35,6.78,0,10.46,3.93,7.7-3.93,14.06-3.93,8.28,0,11.51,4.81t3.22,15.35V83.55H466.14V61.21q0-5.35-1.17-7.91t-4.69-2.55a23.14,23.14,0,0,0-6.53,1.17l-1.25.42q.33,6.28.33,9.54V83.55H441.62V62q0-6.19-1.09-8.74t-4.77-2.55a18.53,18.53,0,0,0-6.44,1.17l-1,.33Z"/></svg>