<?xml version="1.0" encoding="UTF-8" standalone="no"?>
<svg width="50px" height="62px" viewBox="0 0 44 62" version="1.1" xmlns="http://www.w3.org/2000/svg" xmlns:xlink="http://www.w3.org/1999/xlink">
    <!-- Generator: Sketch 47.1 (45422) - http://www.bohemiancoding.com/sketch -->
    <title>Inform_instructor_illustration</title>
    <desc>Created with Sketch.</desc>
    <defs></defs>
    <g id="Symbols" stroke="none" stroke-width="1" fill="none" fill-rule="evenodd">
        <g id="Inform_instructor_illustration" fill-rule="nonzero" fill="#92989E">
            <g id="Shape">
                <path d="M20.8702703,43.5956757 C16.8048897,43.5956728 13.1400377,41.1461095 11.5853972,37.3897267 C10.0307566,33.6333438 10.8926582,29.3103094 13.7690179,26.4373538 C16.6453775,23.5643981 20.9694295,22.7076162 24.7239688,24.2667037 C28.4785081,25.8257912 30.92373,29.4935412 30.9189189,33.5589189 C30.9058202,39.1012731 26.4126361,43.5891399 20.8702703,43.5956757 Z M20.8702703,25.8886486 C16.634097,25.8886486 13.2,29.3227456 13.2,33.5589189 C13.2,37.7950922 16.634097,41.2291892 20.8702703,41.2291892 C25.1064436,41.2291892 28.5405405,37.7950922 28.5405405,33.5589189 C28.5339923,29.325461 25.1037282,25.8951969 20.8702703,25.8886486 L20.8702703,25.8886486 Z"></path>
                <path d="M28.7545946,45.1891892 L12.867027,45.1891892 C11.8413749,45.2426536 10.8312602,44.9214456 10.0248649,44.2854054 C9.09046601,43.3395944 8.59454592,42.0458898 8.6572973,40.7178378 L8.6572973,22.2378378 C8.6572973,20.2675247 7.06004289,18.6702703 5.08972973,18.6702703 L3.98378378,18.6702703 C2.01347062,18.6702703 0.416216216,20.2675247 0.416216216,22.2378378 L0.416216216,46.7113514 C0.416216216,50.6237838 3.69837838,52.9189189 5.17297297,53.7513514 L5.17297297,59.9351351 C5.17297297,60.5919062 5.70539111,61.1243243 6.36216216,61.1243243 L35.3783784,61.1243243 C36.0351494,61.1243243 36.5675676,60.5919062 36.5675676,59.9351351 L36.5675676,53.0378378 C36.5770576,50.9595342 35.7580989,48.9630965 34.2918524,47.4901548 C32.8256059,46.0172131 30.8329199,45.1891675 28.7545946,45.1891892 Z M3.98378378,21.0486486 L5.08972973,21.0486486 C5.74650078,21.0486486 6.27891892,21.5810668 6.27891892,22.2378378 L6.27891892,23.5102703 L2.79459459,23.5102703 L2.79459459,22.2378378 C2.79459459,21.5810668 3.32701273,21.0486486 3.98378378,21.0486486 Z M34.1891892,58.7459459 L7.56324324,58.7459459 L7.56324324,53.0378378 C7.56489505,52.5634864 7.28448391,52.1335226 6.84972973,51.9437838 C6.84972973,51.9437838 2.79459459,50.1362162 2.79459459,46.7232432 L2.79459459,25.8886486 L6.27891892,25.8886486 L6.27891892,40.7891892 C6.21528186,42.7958045 7.01138098,44.7341328 8.46702703,46.1167568 C9.76432252,47.1700131 11.4144648,47.6888723 13.0810811,47.5675676 L28.7545946,47.5675676 C31.7560383,47.5675676 34.1891892,50.0007184 34.1891892,53.0021622 L34.1891892,58.7459459 Z"></path>
                <path d="M38.3275676,38.5772973 C36.6323558,38.5821064 35.1016118,37.5640003 34.4506588,35.9987443 C33.7997059,34.4334883 34.1570812,32.630158 35.3557818,31.4314574 C36.5544823,30.2327568 38.3578126,29.8753815 39.9230686,30.5263345 C41.4883247,31.1772875 42.5064308,32.7080314 42.5016216,34.4032432 C42.4950895,36.7057985 40.6301229,38.5707652 38.3275676,38.5772973 L38.3275676,38.5772973 Z M38.3275676,32.6313514 C37.5954118,32.6265344 36.9326661,33.0638669 36.6491382,33.738913 C36.3656104,34.4139591 36.517309,35.1933685 37.0333211,35.7127979 C37.5493331,36.2322272 38.3277243,36.3890671 39.0046271,36.1100011 C39.6815299,35.8309351 40.1232274,35.1710905 40.1232432,34.4389189 C40.1327976,33.9554265 39.9482177,33.4882665 39.6107689,33.1418786 C39.2733201,32.7954908 38.8111445,32.5987628 38.3275676,32.5956757 L38.3275676,32.6313514 Z"></path>
                <path d="M38.3275676,29.48 C37.2096447,29.5131025 36.1274256,29.0843766 35.3354642,28.294665 C34.5435027,27.5049534 34.1116997,26.4239585 34.1416216,25.3059459 C34.1416216,24.64 33.2378378,7.58702703 33.2378378,5.43459459 C33.2378378,2.62689834 35.5139254,0.350810811 38.3216216,0.350810811 C41.1293179,0.350810811 43.4054054,2.62689834 43.4054054,5.43459459 C43.4054054,6.73081081 42.5372973,24.6043243 42.5016216,25.3654054 C42.5217587,26.4731202 42.0864702,27.5405728 41.2974686,28.318335 C40.508467,29.0960973 39.4348795,29.5160268 38.3275676,29.48 Z M38.3275676,2.72324324 C36.8580116,2.75546546 35.6817694,3.95280618 35.6756757,5.4227027 C35.6756757,7.51567568 36.5675676,25.0562162 36.5794595,25.2345946 C36.4525576,25.9391115 36.7533781,26.652142 37.3465676,27.0528595 C37.939757,27.4535769 38.7135394,27.4664733 39.319753,27.0857459 C39.9259665,26.7050185 40.2503811,26.0024086 40.147027,25.2940541 C40.4562162,18.812973 41.0508108,6.40972973 41.0508108,5.4227027 C41.0476638,4.70360546 40.7589818,4.0152115 40.2482732,3.50896316 C39.7375645,3.00271482 39.0466647,2.72008239 38.3275676,2.72324324 Z"></path>
            </g>
        </g>
    </g>
</svg>