<?xml version="1.0" encoding="UTF-8" standalone="no"?>
<svg width="16px" height="16px" viewBox="0 0 16 16" version="1.1" xmlns="http://www.w3.org/2000/svg" xmlns:xlink="http://www.w3.org/1999/xlink">
    <!-- Generator: Sketch 47.1 (45422) - http://www.bohemiancoding.com/sketch -->
    <title>icon_audio</title>
    <desc>Created with Sketch.</desc>
    <defs></defs>
    <g id="Symbols" stroke="none" stroke-width="1" fill="none" fill-rule="evenodd">
        <g id="icon_audio" fill="#000000">
            <path d="M14.4,6.4 L11.2,6.4 C10.316,6.4 9.6,5.6832 9.6,4.8 L9.6,1.6 L2.4,1.6 C1.9584,1.6 1.6,1.9584 1.6,2.4 L1.6,13.6 C1.6,14.0416 1.9584,14.4 2.4,14.4 L13.6,14.4 C14.0416,14.4 14.4,14.0416 14.4,13.6 L14.4,6.4 Z M16,5.1312 L16,14.4 C16,15.2832 15.284,16 14.4,16 L1.6,16 C0.716,16 0,15.2832 0,14.4 L0,1.6 C0,0.7168 0.716,0 1.6,0 L10.8688,0 C11.0808,0 11.284,0.084 11.4344,0.2344 L15.7656,4.5656 C15.916,4.716 16,4.9192 16,5.1312 L16,5.1312 Z M11.2,7.2 L11.2,11.2 L11.1984,11.2 C11.1888,12.076 10.4776,12.7832 9.6,12.7832 C8.716,12.7832 8,12.0672 8,11.1832 C8,10.3 8.716,9.5832 9.6,9.5832 L9.6,8.8 L6.4,8.8 L6.4,12 L6.3984,12 C6.3888,12.876 5.6776,13.5832 4.8,13.5832 C3.916,13.5832 3.2,12.8672 3.2,11.9832 C3.2,11.1 3.916,10.3832 4.8,10.3832 L4.8,7.2 L11.2,7.2 Z" id="file_music_player-[#1607]"></path>
        </g>
    </g>
</svg>