<?xml version="1.0" encoding="UTF-8" standalone="no"?>
<svg width="50px" height="50px" viewBox="0 0 50 50" version="1.1" xmlns="http://www.w3.org/2000/svg" xmlns:xlink="http://www.w3.org/1999/xlink">
    <!-- Generator: Sketch 47.1 (45422) - http://www.bohemiancoding.com/sketch -->
    <title>contains_web_links_illustration</title>
    <desc>Created with Sketch.</desc>
    <defs></defs>
    <g id="Symbols" stroke="none" stroke-width="1" fill="none" fill-rule="evenodd">
        <g id="contains_web_links_illustration" fill="#92989E">
            <path d="M18.2922537,33.6897262 L16.092204,33.6897262 C10.9506878,33.6897262 6.82339454,29.2566261 7.33600612,24.0095075 C7.78041617,19.4378042 11.890109,16.0893286 16.4838128,16.0893286 L18.2922537,16.0893286 C19.5066811,16.0893286 20.4923034,15.1037063 20.4923034,13.8892789 C20.4923034,12.6748514 19.5066811,11.6892292 18.2922537,11.6892292 L16.6466165,11.6892292 C9.41725315,11.6892292 3.11411074,17.259755 2.89850587,24.4825182 C2.6741008,31.9582871 8.6670362,38.0898256 16.092204,38.0898256 L18.2922537,38.0898256 C19.5066811,38.0898256 20.4923034,37.1042034 20.4923034,35.8897759 C20.4923034,34.6753485 19.5066811,33.6897262 18.2922537,33.6897262 M33.1381891,11.6892292 L31.4925519,11.6892292 C30.2781245,11.6892292 29.2925022,12.6748514 29.2925022,13.8892789 C29.2925022,15.1037063 30.2781245,16.0893286 31.4925519,16.0893286 L33.3009928,16.0893286 C37.8946966,16.0893286 42.0043894,19.4378042 42.4487994,24.0095075 C42.961411,29.2566261 38.8341178,33.6897262 33.6926016,33.6897262 L31.4925519,33.6897262 C30.2781245,33.6897262 29.2925022,34.6753485 29.2925022,35.8897759 C29.2925022,38.3186308 31.4925519,38.0898256 33.6926016,38.0898256 C41.1177694,38.0898256 47.1107048,31.9582871 46.8862997,24.4825182 C46.6706948,17.259755 40.3675524,11.6892292 33.1381891,11.6892292 M13.8921543,22.6894777 L35.8926513,22.6894777 C37.1070788,22.6894777 38.092701,23.6751 38.092701,24.8895274 C38.092701,27.8507943 36.3568618,27.0895771 13.8921543,27.0895771 C12.6777268,27.0895771 11.6921045,26.1039548 11.6921045,24.8895274 C11.6921045,23.6751 12.6777268,22.6894777 13.8921543,22.6894777" id="link_round-[#1109]" transform="translate(24.892403, 24.892403) rotate(-45.000000) translate(-24.892403, -24.892403) "></path>
        </g>
    </g>
</svg>