<?xml version="1.0" encoding="UTF-8" standalone="no"?>
<svg width="16px" height="16px" viewBox="0 0 16 16" version="1.1" xmlns="http://www.w3.org/2000/svg" xmlns:xlink="http://www.w3.org/1999/xlink">
    <!-- Generator: Sketch 47.1 (45422) - http://www.bohemiancoding.com/sketch -->
    <title>icon_web_page</title>
    <desc>Created with Sketch.</desc>
    <defs></defs>
    <g id="Symbols" stroke="none" stroke-width="1" fill="none" fill-rule="evenodd">
        <g id="icon_web_page" fill="#000000">
            <path d="M9.8488,14.1318165 C10.8616,12.4896518 11.4504,10.663334 11.6056,8.80258768 L14.344,8.80258768 C14.0264,11.3342916 12.2312,13.410417 9.8488,14.1318165 M8.004,14.0045107 C6.852,12.4456152 6.1752,10.6465201 5.996,8.80258768 L10.0048,8.80258768 C9.828,10.6457194 9.1536,12.4448145 8.004,14.0045107 M1.6552,8.80258768 L4.3944,8.80258768 C4.5512,10.6641347 5.1432,12.4920538 6.1592,14.1342185 C3.7728,13.415221 1.9736,11.3374943 1.6552,8.80258768 M5.8304,1.98332059 C4.9408,3.61027266 4.4592,5.39655713 4.3736,7.20125691 L1.6552,7.20125691 C1.9584,4.78484878 3.6096,2.78798931 5.8304,1.98332059 M7.9736,1.59739988 C7.9808,1.58779189 7.988,1.57818391 7.9952,1.56857592 C8.0024,1.57818391 8.0088,1.58779189 8.016,1.59739988 C9.244,3.26998987 9.9144,5.22041074 10.0256,7.20125691 L5.9736,7.20125691 C6.0824,5.22121141 6.7496,3.2715912 7.9736,1.59739988 M14.344,7.20125691 L11.6256,7.20125691 C11.5376,5.3949558 11.0528,3.60787066 10.1592,1.97931727 C12.3856,2.78238465 14.0408,4.78084545 14.344,7.20125691 M8.684,0.0296970547 C3.9536,-0.372236968 0,3.35886372 0,8.00192229 C0,12.3511367 3.468,15.8740644 7.768,15.9965662 C12.3096,16.1278753 16,12.4760405 16,8.00192229 C16,3.87209024 12.8544,0.385993151 8.684,0.0296970547" id="globe_network-[#1294]"></path>
        </g>
    </g>
</svg>