<?xml version="1.0" encoding="UTF-8" standalone="no"?>
<svg width="28px" height="28px" viewBox="0 0 28 28" version="1.1" xmlns="http://www.w3.org/2000/svg" xmlns:xlink="http://www.w3.org/1999/xlink">
    <!-- Generator: Sketch 47.1 (45422) - http://www.bohemiancoding.com/sketch -->
    <title>icon_audioplayer_mute</title>
    <desc>Created with Sketch.</desc>
    <defs></defs>
    <g id="Symbols" stroke="none" stroke-width="1" fill="none" fill-rule="evenodd">
        <g id="icon_audioplayer_mute" fill="#4A4A4A">
            <path d="M5.79310345,11.5862069 L4.34482759,11.5862069 C3.54537931,11.5862069 2.89655172,12.3431724 2.89655172,13.2758621 L2.89655172,16.6551724 C2.89655172,17.5878621 3.54537931,18.3448276 4.34482759,18.3448276 L5.79310345,18.3448276 L5.79310345,11.5862069 Z M23.6097931,18.3115941 L25.1034483,19.8254298 L25.1034483,24.8153628 C25.1034483,27.1195097 22.7625517,28.6587879 20.6868103,27.7205914 L5.75339655,20.9703475 L3.13793103,20.9703475 C1.40422414,20.9703475 0,19.5471511 0,17.7900205 L0,11.4293666 C0,9.67223592 1.40422414,8.2490396 3.13793103,8.2490396 L5.75339655,8.2490396 L20.5032414,0.371369709 C22.5915345,-0.744925056 25.1034483,0.789582705 25.1034483,3.18436891 L25.1034483,7.80220366 L23.6097931,9.3160393 L21.9655172,7.64954797 L21.9655172,4.34518825 C21.9655172,3.75364744 21.3520517,3.37041804 20.8295862,3.63438518 L12.5517241,7.82923644 L9.4137931,9.41939993 L9.4137931,18.2098237 L12.5517241,19.7999871 L20.8295862,23.9948384 C21.3520517,24.2588055 21.9655172,23.8755761 21.9655172,23.2840353 L21.9655172,19.9780855 L23.6097931,18.3115941 Z M27.5464532,11.3303184 L25.3595302,13.5172414 L27.5464532,15.7041643 C28.1511823,16.3088934 28.1511823,17.2879049 27.5464532,17.8910873 C26.9432707,18.4958163 25.9642592,18.4958163 25.3595302,17.8910873 L23.1726071,15.7041643 L20.9856841,17.8910873 C20.380955,18.4958163 19.4019435,18.4958163 18.7972144,17.8926339 L18.7972144,17.8910873 C18.194032,17.2879049 18.194032,16.3088934 18.7972144,15.7041643 L20.9856841,13.5172414 L18.7972144,11.3303184 C18.194032,10.7255894 18.194032,9.7465779 18.7972144,9.14339547 L18.7972144,9.14184885 C19.4019435,8.53866642 20.380955,8.53866642 20.9856841,9.14339547 L23.1726071,11.3303184 L25.3595302,9.14339547 C25.9642592,8.53866642 26.9432707,8.53866642 27.5464532,9.14339547 C28.1511823,9.7465779 28.1511823,10.7255894 27.5464532,11.3303184 L27.5464532,11.3303184 Z" id="volume_close-[#932]"></path>
        </g>
    </g>
</svg>