<?xml version="1.0" encoding="UTF-8" standalone="no"?>
<svg width="16px" height="16px" viewBox="0 0 16 16" version="1.1" xmlns="http://www.w3.org/2000/svg" xmlns:xlink="http://www.w3.org/1999/xlink">
    <!-- Generator: Sketch 47.1 (45422) - http://www.bohemiancoding.com/sketch -->
    <title>icon_youtube</title>
    <desc>Created with Sketch.</desc>
    <defs></defs>
    <g id="Symbols" stroke="none" stroke-width="1" fill="none" fill-rule="evenodd">
        <g id="icon_youtube" fill="#000000">
            <path d="M6.4,10 L6.4,5.2 C7.88671251,6.00184823 9.03817134,6.7763995 10.4,7.61151591 C9.2767887,8.32550204 7.88671251,9.12649725 6.4,10 M15.2727986,2.94630962 C14.9978741,2.58410115 14.5293071,2.3024721 14.0304586,2.20912763 C12.5641947,1.93068984 3.41677954,1.92989203 1.95131247,2.20912763 C1.55127742,2.28412233 1.1950709,2.46522656 0.889067991,2.74685561 C-0.400288024,3.94357962 0.00373144418,10.3612116 0.314515651,11.4007658 C0.445204394,11.850734 0.614143501,12.1754452 0.82691115,12.388462 C1.10103876,12.6700911 1.47637045,12.8639604 1.90748393,12.9509223 C3.11476104,13.2006387 9.33442958,13.3402565 14.0049584,12.9884197 C14.435275,12.913425 14.8161848,12.7131731 15.1166096,12.4195769 C16.3087459,11.2276397 16.2274639,4.44939497 15.2727986,2.94630962" id="youtube-[#168]"></path>
        </g>
    </g>
</svg>