<?xml version="1.0" encoding="UTF-8" standalone="no"?>
<svg width="16px" height="16px" viewBox="0 0 16 16" version="1.1" xmlns="http://www.w3.org/2000/svg" xmlns:xlink="http://www.w3.org/1999/xlink">
    <!-- Generator: Sketch 47.1 (45422) - http://www.bohemiancoding.com/sketch -->
    <title>icon_pdf</title>
    <desc>Created with Sketch.</desc>
    <defs></defs>
    <g id="Symbols" stroke="none" stroke-width="1" fill="none" fill-rule="evenodd">
        <g id="icon_pdf" fill="#000000">
            <path d="M15.7712,4.9184 L11.4072,0.2904 C11.256,0.1312 11.0424,0 10.8232,0 L1.5832,0 C0.6992,0 0,0.8 0,1.6832 L0,7.2832 C0,7.7248 0.3496,8 0.7912,8 L0.7952,8 C1.2376,8 1.6,7.7248 1.6,7.2832 L1.6,2.4832 C1.6,2.0416 1.9416,1.6 2.3832,1.6 L9.6,1.6 L9.6,4.8832 C9.6,5.7672 10.2992,6.4 11.1832,6.4 L14.4,6.4 L14.4,7.2832 C14.4,7.7248 14.7496,8 15.1912,8 L15.1952,8 C15.6376,8 16,7.7248 16,7.2832 L16,5.4696 C16,5.264 15.9128,5.0672 15.7712,4.9184 L15.7712,4.9184 Z M3.1832,12.0832 C3.1832,11.6416 2.8248,11.2832 2.3832,11.2832 L1.5832,11.2832 L1.5832,12.8832 L2.3832,12.8832 C2.8248,12.8832 3.1832,12.5248 3.1832,12.0832 L3.1832,12.0832 Z M4.78,11.8704 C4.852,13.2544 3.7512,14.4 2.3832,14.4 L1.6,14.4 L1.6,15.2832 C1.6,15.7248 1.2376,16 0.7952,16 L0.7912,16 C0.3496,16 0,15.7248 0,15.2832 L0,10.4832 C0,10.0416 0.3416,9.6 0.7832,9.6 L2.2472,9.6 C3.5472,9.6 4.712,10.5728 4.78,11.8704 L4.78,11.8704 Z M8.8,12.0832 C8.8,11.6416 8.4248,11.2 7.9832,11.2 L7.2,11.2 L7.2,14.4 L7.9832,14.4 C8.4248,14.4 8.8,14.1248 8.8,13.6832 L8.8,12.0832 Z M10.4,12 L10.4,13.6 C10.4,14.92 9.32,16 8,16 L6.316,16 C5.92,16 5.6,15.6792 5.6,15.2832 L5.6,10.3832 C5.6,9.9504 5.9504,9.6 6.3832,9.6 L8,9.6 C9.32,9.6 10.4,10.68 10.4,12 L10.4,12 Z M16,10.4208 L16,10.4416 C16,10.8832 15.6248,11.2 15.1832,11.2 L12.8,11.2 L12.8,12.8 L15.1832,12.8 C15.6248,12.8 16,13.1784 16,13.6208 L16,13.6416 C16,14.0832 15.6248,14.4 15.1832,14.4 L12.8,14.4 L12.8,15.2832 C12.8,15.7248 12.4376,16 11.9952,16 L11.9912,16 C11.5496,16 11.2,15.7248 11.2,15.2832 L11.2,10.4832 C11.2,10.0416 11.5416,9.6 11.9832,9.6 L15.1832,9.6 C15.6248,9.6 16,9.9784 16,10.4208 L16,10.4208 Z" id="file_pdf-[#1754]"></path>
        </g>
    </g>
</svg>