<?xml version="1.0" encoding="UTF-8" standalone="no"?>
<svg width="39px" height="28px" viewBox="0 0 39 28" version="1.1" xmlns="http://www.w3.org/2000/svg" xmlns:xlink="http://www.w3.org/1999/xlink">
    <!-- Generator: Sketch 47.1 (45422) - http://www.bohemiancoding.com/sketch -->
    <title>icon_audioplayer_volume</title>
    <desc>Created with Sketch.</desc>
    <defs></defs>
    <g id="Symbols" stroke="none" stroke-width="1" fill="none" fill-rule="evenodd">
        <g id="icon_audioplayer_volume" fill="#4A4A4A">
            <path d="M36.5737601,5.06871264 L36.5737601,5.06871264 C37.4515303,5.06871264 38.1639236,5.78110588 38.1639236,6.65887612 L38.1639236,22.5605109 C38.1639236,23.4382812 37.4515303,24.1506744 36.5737601,24.1506744 L36.5737601,24.1506744 C35.6959899,24.1506744 34.9835966,23.4382812 34.9835966,22.5605109 L34.9835966,6.65887612 C34.9835966,5.78110588 35.6959899,5.06871264 36.5737601,5.06871264 L36.5737601,5.06871264 Z M28.6229427,19.380184 L28.6229427,9.83920308 C28.6229427,8.96143284 29.3353359,8.2490396 30.2131062,8.2490396 L30.2131062,8.2490396 C31.0908764,8.2490396 31.8032697,8.96143284 31.8032697,9.83920308 L31.8032697,19.380184 C31.8032697,20.2579542 31.0908764,20.9703475 30.2131062,20.9703475 L30.2131062,20.9703475 C29.3353359,20.9703475 28.6229427,20.2579542 28.6229427,19.380184 L28.6229427,19.380184 Z M6.36065393,17.7900205 L4.77049045,17.7900205 C3.89272021,17.7900205 3.18032697,17.0776273 3.18032697,16.199857 L3.18032697,13.0195301 C3.18032697,12.1417598 3.89272021,11.4293666 4.77049045,11.4293666 L6.36065393,11.4293666 L6.36065393,17.7900205 Z M9.5409809,9.41939993 C13.7819469,7.29812184 17.1228804,5.62845018 21.1030596,3.6375655 C21.632584,3.37359836 22.2622888,3.75364744 22.2622888,4.34518825 L22.2622888,23.2840353 C22.2622888,23.8755761 21.632584,24.2556252 21.1030596,23.9916581 C17.1244705,22.0007734 13.7819469,20.3295116 9.5409809,18.2098237 L9.5409809,9.41939993 Z M1.13686838e-13,11.4293666 L1.13686838e-13,17.7900205 C1.13686838e-13,19.5471511 1.42319632,20.9703475 3.18032697,20.9703475 L5.83112949,20.9703475 L20.9663055,27.7205914 C23.0700918,28.6587879 25.4426157,27.1195097 25.4426157,24.8153628 L25.4426157,3.18436891 C25.4426157,0.789582705 22.896764,-0.744925056 20.7802564,0.371369709 L5.83112949,8.2490396 L3.18032697,8.2490396 C1.42319632,8.2490396 1.13686838e-13,9.67223592 1.13686838e-13,11.4293666 L1.13686838e-13,11.4293666 Z" id="volume_medium-[#930]"></path>
        </g>
    </g>
</svg>