<?xml version="1.0" encoding="UTF-8" standalone="no"?>
<svg width="50px" height="46px" viewBox="0 0 50 46" version="1.1" xmlns="http://www.w3.org/2000/svg" xmlns:xlink="http://www.w3.org/1999/xlink">
    <!-- Generator: Sketch 47.1 (45422) - http://www.bohemiancoding.com/sketch -->
    <title>No_internet_connection_icon</title>
    <desc>Created with Sketch.</desc>
    <defs></defs>
    <g id="Symbols" stroke="none" stroke-width="1" fill="none" fill-rule="evenodd">
        <g id="No_internet_connection_icon" fill-rule="nonzero" fill="#E9C865">
            <g id="Shape">
                <path d="M25,35.8068182 C22.4080273,35.8068182 20.3068182,37.9080273 20.3068182,40.5 C20.3068182,43.0919727 22.4080273,45.1931818 25,45.1931818 C27.5919727,45.1931818 29.6931818,43.0919727 29.6931818,40.5 C29.6869348,37.9106193 27.5893807,35.8130652 25,35.8068182 Z M25,42.9318182 C23.6632199,42.9318182 22.5795455,41.8481438 22.5795455,40.5113636 C22.5795455,39.1745835 23.6632199,38.0909091 25,38.0909091 C26.3367801,38.0909091 27.4204545,39.1745835 27.4204545,40.5113636 C27.4142344,41.8455588 26.3341952,42.9255981 25,42.9318182 L25,42.9318182 Z"></path>
                <path d="M49.2727273,16.2045455 C44.2491236,11.1591761 37.7719099,7.81327801 30.75,6.63636364 C30.75,6.35227273 30.75,6.13636364 30.75,6.03409091 C30.8441931,3.91265422 29.7660659,1.91078449 27.9429423,0.8219381 C26.1198187,-0.266908286 23.8460904,-0.266908286 22.0229668,0.8219381 C20.1998432,1.91078449 19.121716,3.91265422 19.2159091,6.03409091 C19.2159091,6.18181818 19.2159091,6.38636364 19.2159091,6.63636364 C12.1939992,7.81327801 5.71678552,11.1591761 0.693181818,16.2045455 C0.335659123,16.4688173 0.165089431,16.9173147 0.256645669,17.3523774 C0.348201906,17.7874401 0.685066082,18.1291513 1.1187765,18.226913 C1.55248692,18.3246748 2.00337518,18.1605293 2.27272727,17.8068182 C6.90248483,13.1581727 12.8560767,10.0543668 19.3181818,8.92045455 C19.4090909,11.1931818 19.5454545,14.2613636 19.6931818,17.4204545 C15.3558994,18.3984924 11.3844008,20.5851806 8.23863636,23.7272727 C7.85252637,24.1781367 7.87848606,24.8502206 8.29822361,25.2699582 C8.71796117,25.6896958 9.39004514,25.7156554 9.84090909,25.3295455 C12.5862903,22.5895095 16.0285791,20.6522397 19.7954545,19.7272727 C19.9431818,22.8636364 20.0909091,25.7954545 20.1818182,27.6818182 C18.3467609,28.3643627 16.680199,29.4340629 15.2954545,30.8181818 C14.9093446,31.2690458 14.9353042,31.9411297 15.3550418,32.3608673 C15.7747794,32.7806049 16.4468633,32.8065645 16.8977273,32.4204545 C17.8822981,31.4422723 19.0377313,30.6527263 20.3068182,30.0909091 C20.4782721,32.5502444 22.5233318,34.4576953 24.9886364,34.4576953 C27.4539409,34.4576953 29.4990006,32.5502444 29.6704545,30.0909091 C30.9395414,30.6527263 32.0949746,31.4422723 33.0795455,32.4204545 C33.5304094,32.8065645 34.2024934,32.7806049 34.6222309,32.3608673 C35.0419685,31.9411297 35.0679282,31.2690458 34.6818182,30.8181818 C33.2937734,29.4326951 31.623208,28.3629131 29.7840909,27.6818182 C29.875,25.7954545 30.0113636,22.8636364 30.1590909,19.7272727 C33.9355451,20.6510798 37.3864063,22.5926805 40.1363636,25.3409091 C40.5872276,25.7270191 41.2593116,25.7010594 41.6790491,25.2813218 C42.0987867,24.8615843 42.1247464,24.1895003 41.7386364,23.7386364 C38.5884175,20.5881613 34.608262,18.3971054 30.2613636,17.4204545 C30.4090909,14.25 30.5568182,11.1136364 30.6477273,8.93181818 C37.1098324,10.0657305 43.0634243,13.1695364 47.6931818,17.8181818 C48.1440458,18.2042918 48.8161297,18.1783321 49.2358673,17.7585946 C49.6556049,17.338857 49.6815645,16.666773 49.2954545,16.2159091 L49.2727273,16.2045455 Z M28.4772727,6.31818182 C28.4772727,6.75 28.4772727,7.53409091 28.3863636,8.59090909 C28.2954545,10.6477273 28.1590909,13.7159091 28.0113636,17.0113636 L27.9090909,19.2840909 C27.7840909,21.9545455 27.6590909,24.6590909 27.5454545,27.0227273 L27.4318182,29.2954545 L27.4318182,29.6363636 C27.4318182,30.9762818 26.3455999,32.0625 25.0056818,32.0625 C23.6657637,32.0625 22.5795455,30.9762818 22.5795455,29.6363636 L22.5795455,29.3409091 L22.4659091,27.0681818 C22.3636364,25.125 22.2272727,22.2954545 22.0909091,19.3295455 L21.9772727,17.0568182 C21.8295455,13.8863636 21.6818182,10.7840909 21.6022727,8.63636364 C21.6022727,7.63636364 21.5340909,6.84090909 21.5227273,6.36363636 C21.5227273,6.25 21.5227273,6.14772727 21.5227273,6.06818182 C21.4487935,4.77223052 22.0981655,3.54179598 23.2097861,2.87153072 C24.3214067,2.20126545 25.7126842,2.20126545 26.8243048,2.87153072 C27.9359255,3.54179598 28.5852974,4.77223052 28.5113636,6.06818182 C28.4886364,6.07954545 28.4886364,6.19318182 28.4772727,6.31818182 Z"></path>
            </g>
        </g>
    </g>
</svg>