<?xml version="1.0" encoding="UTF-8" standalone="no"?>
<svg width="22px" height="30px" viewBox="0 0 22 30" version="1.1" xmlns="http://www.w3.org/2000/svg" xmlns:xlink="http://www.w3.org/1999/xlink">
    <!-- Generator: Sketch 47.1 (45422) - http://www.bohemiancoding.com/sketch -->
    <title>icon_audioplayer_pause</title>
    <desc>Created with Sketch.</desc>
    <defs></defs>
    <g id="Symbols" stroke="none" stroke-width="1" fill="none" fill-rule="evenodd">
        <g id="icon_audioplayer_pause" fill="#4A4A4A">
            <path d="M4,0 C1.792,0 0,1.68 0,3.75 L0,26.25 C0,28.32 1.792,30 4,30 C6.208,30 8,28.32 8,26.25 L8,3.75 C8,1.68 6.208,0 4,0 M22,3.75 L22,26.25 C22,28.32 20.208,30 18,30 C15.792,30 14,28.32 14,26.25 L14,3.75 C14,1.68 15.792,0 18,0 C20.208,0 22,1.68 22,3.75" id="pause-[#1006]"></path>
        </g>
    </g>
</svg>