<?xml version="1.0" encoding="UTF-8" standalone="no"?>
<svg width="35px" height="35px" viewBox="0 0 35 35" version="1.1" xmlns="http://www.w3.org/2000/svg" xmlns:xlink="http://www.w3.org/1999/xlink">
    <!-- Generator: Sketch 47 (45396) - http://www.bohemiancoding.com/sketch -->
    <title>A-key-icon</title>
    <desc>Created with Sketch.</desc>
    <defs></defs>
    <g id="Symbols" stroke="none" stroke-width="1" fill="none" fill-rule="evenodd">
        <g id="A-key-icon" fill-rule="nonzero" fill="#4A4A4A">
            <path d="M19.5517578,17.8847656 L18.0273438,13.4482422 L16.4072266,17.8847656 L19.5517578,17.8847656 Z M17.3164062,11.9580078 L18.8544922,11.9580078 L22.4980469,22 L21.0078125,22 L19.9892578,18.9921875 L16.0175781,18.9921875 L14.9306641,22 L13.5361328,22 L17.3164062,11.9580078 Z M8,2 C4.6862915,2 2,4.6862915 2,8 L2,27 C2,30.3137085 4.6862915,33 8,33 L27,33 C30.3137085,33 33,30.3137085 33,27 L33,8 C33,4.6862915 30.3137085,2 27,2 L8,2 Z M8,-3.94430453e-31 L27,-3.94430453e-31 C31.418278,-8.11624501e-16 35,3.581722 35,8 L35,27 C35,31.418278 31.418278,35 27,35 L8,35 C3.581722,35 -3.47095419e-16,31.418278 -8.8817842e-16,27 L-3.94430453e-31,8 C-5.41083001e-16,3.581722 3.581722,-7.65539184e-17 8,-3.94430453e-31 Z" id="Rectangle-3"></path>
        </g>
    </g>
</svg>