<?xml version="1.0" encoding="UTF-8" standalone="no"?>
<svg width="24px" height="12px" viewBox="0 0 24 12" version="1.1" xmlns="http://www.w3.org/2000/svg" xmlns:xlink="http://www.w3.org/1999/xlink">
    <!-- Generator: Sketch 47 (45396) - http://www.bohemiancoding.com/sketch -->
    <title>turtle-icon</title>
    <desc>Created with Sketch.</desc>
    <defs></defs>
    <g id="Symbols" stroke="none" stroke-width="1" fill="none" fill-rule="evenodd">
        <g id="turtle-icon" fill="#4A4A4A">
            <path d="M0.926811083,6.78804461 C1.11312846,6.75932121 1.30712343,6.78273233 1.53037783,6.78273233 C1.55147607,6.65214894 1.57287657,6.50377557 1.59953652,6.35639053 C1.87073048,4.85832601 2.67832746,3.67967811 3.69726952,2.61382361 C5.12989421,1.11526493 6.89392443,0.343253946 8.90085642,0.147070007 C10.0305491,0.0366856555 11.1723929,-0.0224907344 12.3058338,0.00802402196 C13.5225793,0.0407625257 14.6345592,0.533693205 15.6073753,1.25165477 C16.6247456,2.00254015 17.5706599,2.85534729 18.5363426,3.67770144 C18.6978136,3.81520316 18.8389118,3.89914962 19.044937,3.83812011 C19.5855113,3.67794852 20.1216121,3.49788675 20.6688967,3.36687097 C21.2336524,3.23171654 21.8060856,3.08791421 22.3813602,3.05245779 C23.025068,3.01280096 23.5175214,3.3608792 23.8228111,3.94640426 C24.102529,4.48269801 23.9722519,5.00737886 23.487597,5.35656898 C23.0615819,5.66350789 22.5731184,5.77345985 22.0648262,5.81361084 C21.5529068,5.85407069 21.0362116,5.86055662 20.5300957,5.93900549 C20.1983879,5.99039876 19.8801612,6.13864859 19.5590327,6.25286273 C19.4071738,6.30691215 19.3985894,6.40846328 19.4437481,6.57024091 C19.7307809,7.59699451 20.0095919,8.62634248 20.2726247,9.6598291 C20.3868816,10.1087172 20.3562317,10.5607557 20.145733,10.9830824 C19.8464282,11.5834324 19.2536826,11.7453953 18.7012594,11.3811332 C18.2337128,11.072897 17.9569572,10.608628 17.7277179,10.1104468 C17.6004635,9.83389911 17.4911033,9.54876527 17.3815617,9.28623953 C16.5956071,9.47402265 15.8366751,9.67576596 15.0691587,9.83408442 C13.8102166,10.0937069 12.5263678,10.2522107 11.2537028,10.1119293 C9.93835768,9.96695333 8.64060453,10.0617097 7.334267,10.1189712 C7.03744081,10.1320048 6.73475063,10.0920391 6.4400403,10.0434255 C6.16521914,9.99814756 5.93205038,10.0770288 5.81398489,10.3082986 C5.44074559,11.039232 4.8265995,11.233501 4.08030227,11.2273857 C3.56771788,11.2232471 3.05452897,11.2735285 2.54200504,11.306267 C2.42297229,11.3138648 2.30254912,11.3385731 2.18817128,11.3737824 C1.85434761,11.4765072 1.65708816,11.3884221 1.51169773,11.0591839 C1.1351335,10.2061297 1.59131486,9.22317159 2.47919395,8.98739259 C2.73225189,8.920186 2.99715869,8.89560124 3.24556171,8.81554633 C3.41108312,8.76223816 3.55701763,8.64530611 3.75760202,8.53053603 C3.3350932,8.19017914 2.92624685,8.05978106 2.50174307,7.97052231 C1.99925441,7.86483253 1.48237783,7.80787989 0.996332494,7.65061153 C0.643526448,7.53639739 0.330680101,7.29339121 0,7.10783185 C0,7.06663075 0,7.02549142 0,6.98429032 C0.308675063,6.91708373 0.61529471,6.83591695 0.926811083,6.78804461 Z" id="Fill-1"></path>
        </g>
    </g>
</svg>