<?xml version="1.0" encoding="UTF-8"?>
<svg width="26px" height="25px" viewBox="0 0 131 115" version="1.1" xmlns="http://www.w3.org/2000/svg" xmlns:xlink="http://www.w3.org/1999/xlink">
	<title>Text to speech icon</title>
	<g id="Speech-SVG" stroke="none" stroke-width="1" fill="#999999" fill-rule="evenodd">
		<path class="letterA" d="M50.9326288,89 L45.992074,76.4350282 L21.3791281,76.4350282 L16.7080581,89 L0,89 L26.678996,25 L41.5904888,25 L68,89 L50.9326288,89 Z M34.0898876,42 L26,64 L42,64 L34.0898876,42 Z" id="A" fill="#999999" fill-rule="nonzero"></path>
		<path class="soundwave soundwave3" d="M94.2557388,7.81978495 C101.98832,12.852351 108.045508,19.4333989 112.427306,27.5629287 C116.809103,35.6924585 119,44.3381499 119,53.5 C119,62.6618501 116.809103,71.3075415 112.427306,79.4370713 C108.045508,87.5666011 101.98832,94.147649 94.2557388,99.180215 C93.2247289,99.954456 92.0648417,100.180277 90.7760771,99.8576759 C89.4873125,99.5350745 88.4885227,98.8576137 87.7797017,97.8252934 C87.0708807,96.7929732 86.8453491,95.6316118 87.1031008,94.3412092 C87.3608526,93.0508067 88.0696735,92.0830055 89.2295608,91.4378057 C95.5445034,87.1794806 100.538461,81.695275 104.211438,74.9851859 C107.884414,68.2750968 109.720902,61.1133682 109.720902,53.5 C109.720902,45.8866318 107.884414,38.7249032 104.211438,32.0148141 C100.538461,25.304725 95.5445034,19.8205194 89.2295608,15.5621943 C88.0696735,14.9169945 87.3608526,13.9491933 87.1031008,12.6587908 C86.8453491,11.3683882 87.0708807,10.2070268 87.7797017,9.17470658 C88.4885227,8.14238632 89.4873125,7.46492551 90.7760771,7.14232413 C92.0648417,6.81972276 93.2247289,7.04554402 94.2557388,7.81978495 Z" fill-rule="nonzero"></path>
		<path class="soundwave soundwave2" d="M101,54 C101,60.1908957 99.5314685,65.9626151 96.5944055,71.3151613 C93.6573425,76.6677075 89.5128192,80.9561905 84.1608387,84.1806163 C83.1165507,84.9544783 81.9417255,85.180189 80.6363631,84.8577455 C79.3310008,84.5353021 78.3519798,83.8259306 77.6993001,82.7296251 C77.0466204,81.6333197 76.8508162,80.4725268 77.1118875,79.2472463 C77.3729588,78.0219659 78.0909085,77.0223932 79.2657337,76.2485313 C83.0512806,73.7979674 86.0536137,70.6057868 88.2727269,66.6719895 C90.4918402,62.7381922 91.6013984,58.5141938 91.6013984,54 C91.6013984,49.4858062 90.4918402,45.2618078 88.2727269,41.3280105 C86.0536137,37.3942132 83.0512806,34.2020326 79.2657337,31.7514687 C78.0909085,30.9776068 77.3729588,29.9780341 77.1118875,28.7527537 C76.8508162,27.5274732 77.0466204,26.3666803 77.6993001,25.2703749 C78.3519798,24.1740694 79.3310008,23.4646979 80.6363631,23.1422545 C81.9417255,22.819811 83.1165507,23.0455217 84.1608387,23.8193837 C89.5128192,27.0438095 93.6573425,31.3322925 96.5944055,36.6848387 C99.5314685,42.0373849 101,47.8091043 101,54 Z" fill-rule="nonzero"></path>
		<path class="soundwave soundwave1" d="M72.9574377,38.6045239 C75.7095219,40.1521059 77.9046376,42.2477887 79.542782,44.8915755 C81.1809263,47.5353623 82,50.4048361 82,53.5 C82,56.5951639 81.1809263,59.4646377 79.542782,62.1084245 C77.9046376,64.7522113 75.7095219,66.8478941 72.9574377,68.3954761 C71.9090257,69.0403009 70.7295611,69.169267 69.4190438,68.7823716 C68.1085265,68.3954761 67.1584032,67.6539274 66.5686709,66.5577225 C65.9789386,65.4615177 65.8478859,64.3008312 66.175516,63.0756632 C66.5031461,61.8504951 67.2894558,60.8832564 68.5344453,60.1739471 C69.7794348,59.4646377 70.762322,58.5296413 71.4831069,57.3689548 C72.2038919,56.2082684 72.5642828,54.9186158 72.5642828,53.5 C72.5642828,52.0813842 72.2038919,50.7917316 71.4831069,49.6310452 C70.762322,48.4703587 69.7794348,47.5353623 68.5344453,46.8260529 C67.2894558,46.1167436 66.5031461,45.1495049 66.175516,43.9243368 C65.8478859,42.6991688 65.9789386,41.5384823 66.5686709,40.4422775 C67.1584032,39.3460726 68.1085265,38.6045239 69.4190438,38.2176284 C70.7295611,37.830733 71.9090257,37.9596991 72.9574377,38.6045239 Z" fill-rule="nonzero"></path>
	</g>
</svg>
