<?xml version="1.0" encoding="UTF-8" standalone="no"?>
<svg width="35px" height="35px" viewBox="0 0 35 35" version="1.1" xmlns="http://www.w3.org/2000/svg" xmlns:xlink="http://www.w3.org/1999/xlink">
    <!-- Generator: Sketch 47 (45396) - http://www.bohemiancoding.com/sketch -->
    <title>alt-key-icon</title>
    <desc>Created with Sketch.</desc>
    <defs></defs>
    <g id="Symbols" stroke="none" stroke-width="1" fill="none" fill-rule="evenodd">
        <g id="alt-key-icon" fill-rule="nonzero" fill="#4A4A4A">
            <path d="M8,2 C4.6862915,2 2,4.6862915 2,8 L2,27 C2,30.3137085 4.6862915,33 8,33 L27,33 C30.3137085,33 33,30.3137085 33,27 L33,8 C33,4.6862915 30.3137085,2 27,2 L8,2 Z M8,-3.94430453e-31 L27,-3.94430453e-31 C31.418278,-8.11624501e-16 35,3.581722 35,8 L35,27 C35,31.418278 31.418278,35 27,35 L8,35 C3.581722,35 -3.47095419e-16,31.418278 -8.8817842e-16,27 L-3.94430453e-31,8 C-5.41083001e-16,3.581722 3.581722,-7.65539184e-17 8,-3.94430453e-31 Z M7.91601562,27.0507812 C8.13867299,27.2265634 8.40234223,27.3144531 8.70703125,27.3144531 C9.07812686,27.3144531 9.43749826,27.2285165 9.78515625,27.0566406 C10.3710967,26.7714829 10.6640625,26.3046907 10.6640625,25.65625 L10.6640625,24.8066406 C10.5351556,24.8886723 10.3691416,24.957031 10.1660156,25.0117188 C9.96288961,25.0664065 9.76367285,25.1054686 9.56835937,25.1289062 L8.9296875,25.2109375 C8.54687309,25.261719 8.25976658,25.3417963 8.06835937,25.4511719 C7.744139,25.6347665 7.58203125,25.9277324 7.58203125,26.3300781 C7.58203125,26.6347671 7.69335826,26.8749991 7.91601562,27.0507812 Z M10.1367187,24.1972656 C10.3789075,24.1660155 10.5410152,24.064454 10.6230469,23.8925781 C10.6699221,23.7988277 10.6933594,23.6640634 10.6933594,23.4882812 C10.6933594,23.1289045 10.565431,22.8681649 10.3095703,22.7060547 C10.0537097,22.5439445 9.68750238,22.4628906 9.2109375,22.4628906 C8.6601535,22.4628906 8.2695324,22.6113266 8.0390625,22.9082031 C7.91015561,23.0722664 7.82617207,23.3164046 7.78710937,23.640625 L6.80273437,23.640625 C6.82226572,22.8671836 7.07323978,22.3291031 7.55566406,22.0263672 C8.03808835,21.7236313 8.59765307,21.5722656 9.234375,21.5722656 C9.97265994,21.5722656 10.5722633,21.7128892 11.0332031,21.9941406 C11.4902367,22.275392 11.71875,22.7128877 11.71875,23.3066406 L11.71875,26.921875 C11.71875,27.0312505 11.7412107,27.1191403 11.7861328,27.1855469 C11.8310549,27.2519535 11.9257805,27.2851562 12.0703125,27.2851562 C12.1171877,27.2851562 12.1699216,27.2822266 12.2285156,27.2763672 C12.2871097,27.2705078 12.349609,27.2617188 12.4160156,27.25 L12.4160156,28.0292969 C12.2519523,28.0761721 12.1269536,28.1054687 12.0410156,28.1171875 C11.9550777,28.1289063 11.8378914,28.1347656 11.6894531,28.1347656 C11.3261701,28.1347656 11.0625008,28.0058607 10.8984375,27.7480469 C10.8124996,27.6113274 10.7519533,27.41797 10.7167969,27.1679688 C10.5019521,27.4492202 10.1933614,27.6933583 9.79101562,27.9003906 C9.38866986,28.1074229 8.94531492,28.2109375 8.4609375,28.2109375 C7.87890334,28.2109375 7.40332216,28.0341815 7.03417969,27.6806641 C6.66503722,27.3271467 6.48046875,26.8847683 6.48046875,26.3535156 C6.48046875,25.7714815 6.66210756,25.3203141 7.02539062,25 C7.38867369,24.6796859 7.86523143,24.4824222 8.45507812,24.4082031 L10.1367187,24.1972656 Z M13.4765625,19.3925781 L14.53125,19.3925781 L14.53125,28 L13.4765625,28 L13.4765625,19.3925781 Z M16.3242188,19.9726562 L17.390625,19.9726562 L17.390625,21.7246094 L18.3925781,21.7246094 L18.3925781,22.5859375 L17.390625,22.5859375 L17.390625,26.6816406 C17.390625,26.9003917 17.464843,27.0468746 17.6132812,27.1210938 C17.6953129,27.1640627 17.8320303,27.1855469 18.0234375,27.1855469 C18.074219,27.1855469 18.128906,27.1845703 18.1875,27.1826172 C18.246094,27.1806641 18.3144527,27.1757813 18.3925781,27.1679688 L18.3925781,28 C18.2714838,28.0351564 18.1455085,28.0605468 18.0146484,28.0761719 C17.8837884,28.091797 17.7421883,28.0996094 17.5898438,28.0996094 C17.0976538,28.0996094 16.7636728,27.9736341 16.5878906,27.7216797 C16.4121085,27.4697253 16.3242188,27.1425801 16.3242188,26.7402344 L16.3242188,22.5859375 L15.4746094,22.5859375 L15.4746094,21.7246094 L16.3242188,21.7246094 L16.3242188,19.9726562 Z M24.625,12 L24.625,11.421875 L27.328125,11.421875 L27.328125,12 L24.625,12 Z M27.328125,6.21875 L27.328125,6.796875 L25.5351562,6.796875 L22.9335938,12 L20.6757812,12 L20.6757812,11.421875 L22.4648438,11.421875 L25.0703125,6.21875 L27.328125,6.21875 Z" id="Rectangle-3"></path>
        </g>
    </g>
</svg>