<?xml version="1.0" encoding="UTF-8" standalone="no"?>
<svg width="24px" height="20px" viewBox="0 0 24 20" version="1.1" xmlns="http://www.w3.org/2000/svg" xmlns:xlink="http://www.w3.org/1999/xlink">
    <!-- Generator: Sketch 47 (45396) - http://www.bohemiancoding.com/sketch -->
    <title>hare-icon</title>
    <desc>Created with Sketch.</desc>
    <defs></defs>
    <g id="Symbols" stroke="none" stroke-width="1" fill="none" fill-rule="evenodd">
        <g id="hare-icon" fill="#4A4A4A">
            <path d="M23.9497327,11.7697265 C23.577009,12.2819528 23.0628181,12.2921577 22.5158231,12.1608145 C22.0281045,12.0437583 21.544004,11.9115747 21.0573106,11.7900163 C20.9458131,11.7622229 20.8301548,11.7508775 20.7163658,11.7319684 C20.6940543,11.7631834 20.6717427,11.7943984 20.6494312,11.8256734 C20.7409085,11.8951868 20.8409487,11.9561161 20.921994,12.0361946 C21.0712402,12.1835655 21.263602,12.3204313 21.3372302,12.5021386 C21.4154412,12.6951314 21.4503558,12.9712042 21.3655116,13.1431268 C21.2989387,13.2778916 21.0114814,13.3893652 20.8387176,13.3694356 C20.4856523,13.328736 20.1100945,13.2532197 19.8032804,13.0847187 C18.7785769,12.5220082 17.6611296,12.3703753 16.5289688,12.2537992 C16.3991397,12.2404128 16.2648482,12.2357906 16.1418332,12.1977323 C15.0409085,11.8569485 13.9526472,12.0705311 12.8668583,12.2731886 C12.285009,12.3817808 11.7087075,12.5211678 11.131803,12.654732 C10.4329085,12.8164498 9.77694874,13.0804567 9.15409447,13.4412301 C8.77401407,13.661416 8.35733065,13.8182114 7.96289849,14.014986 C7.81250653,14.090022 7.67176281,14.1888296 7.53795377,14.2914189 C7.09298894,14.632803 6.66629548,14.9995793 6.2070392,15.3203135 C5.8472804,15.5716544 5.43276784,15.6720827 4.97845628,15.6375661 C4.6710392,15.6142148 4.35433568,15.6412278 4.04818492,15.68739 C3.23043618,15.8106293 2.63839598,16.2565236 2.31662714,17.0150483 C2.12185327,17.474149 2.0112,17.9695672 1.80472764,18.4224249 C1.62123015,18.8248584 1.40468744,19.2315539 1.11704925,19.5626131 C0.79081809,19.9381537 0.413813065,19.8448688 0.236345729,19.3722016 C-0.0136040201,18.7067216 -0.105865327,18.0318772 0.161692462,17.3278587 C0.388426131,16.7311718 0.538335678,16.1058512 0.730094472,15.4956578 C0.801853266,15.267248 0.896586935,15.0459816 0.9792,14.8208734 C1.13037588,14.4090754 1.40981307,14.1384053 1.83240603,13.9969773 C2.01282814,13.9366483 2.17323015,13.8171309 2.40279799,13.6916705 C1.56569246,13.574134 0.662436181,12.735771 0.501009045,11.9950749 C0.425149749,11.6470275 0.557330653,11.3476636 0.939642211,11.2543187 C1.37152161,11.148848 1.82806432,11.1106697 2.27429548,11.1082085 C2.52870754,11.1067678 2.69544121,11.0433773 2.82587337,10.8432411 C2.92422513,10.6923285 3.02854673,10.5449577 3.12044623,10.3902033 C3.37817487,9.95595452 3.68830553,9.58749737 4.11626533,9.28879377 C4.53988342,8.99303157 4.88854673,8.5910183 5.27146131,8.23714817 C6.89206432,6.73966823 8.81495879,6.01878165 11.019401,6.00449478 C11.3071598,6.00263388 11.5947377,5.89242089 11.8818332,5.89494211 C12.4934714,5.90028468 13.1054111,5.93750257 13.7160241,5.97892248 C14.3687276,6.02316375 15.0171497,6.07202724 15.6624965,5.89842378 C15.9078633,5.83239203 15.9603256,5.6977473 15.8500945,5.50829622 C15.7254513,5.29399319 15.5756623,5.08965495 15.4107377,4.90398569 C14.9450291,4.37975365 14.443803,3.88553605 13.9979337,3.34563648 C13.4703558,2.70674932 13.1084864,1.98106043 13.1616724,1.12366823 C13.1799437,0.829526811 13.2536322,0.530042828 13.3548784,0.252049177 C13.4608884,-0.0389707359 13.6675417,-0.0785297547 13.8922854,0.136253506 C14.0938734,0.328886118 14.2626573,0.556035325 14.4414513,0.77165899 C14.5407678,0.891416566 14.6220543,0.945682655 14.7927678,0.851017143 C14.941592,0.768537489 15.1408281,0.721054661 15.3093709,0.73846303 C16.0440241,0.814219452 16.7348985,1.05403475 17.128607,1.70828929 C17.6376724,2.55421599 18.0715417,3.44564456 18.5204864,4.32626794 C18.6320442,4.54507313 18.7541548,4.68271931 19.0061548,4.75145235 C20.3178332,5.1091043 21.3013508,5.89158049 21.8777729,7.12085149 C22.0549387,7.49855307 22.1558834,7.93994528 22.1731296,8.3570258 C22.1979739,8.96019579 21.8416523,9.23002551 21.2451497,9.3173675 C20.914396,9.36581079 20.5723055,9.51444225 20.2952201,9.70443359 C19.9660342,9.93014211 20.0450291,10.2062749 20.4222151,10.3330558 C21.0765467,10.5528815 21.7252704,10.790956 22.3861749,10.9888111 C22.6194814,11.0586847 22.8817327,11.0492001 23.130597,11.0474593 C23.4846271,11.0449381 23.7850492,11.1198541 23.9497327,11.4695822 L23.9497327,11.7697265 Z" id="Fill-1"></path>
        </g>
    </g>
</svg>