<svg xmlns="http://www.w3.org/2000/svg" viewBox="0 0 160.02 57.83"><defs><style>.cls-1{fill:#92989e;}.cls-2{fill:#ddd;}</style></defs><title>USB_device_illustration</title><g id="Layer_3" data-name="Layer 3"><g id="USB"><path class="cls-1" d="M24.14,42.14H15.41V31.94h8.73Zm-5.89-2.84h3V34.78h-3Z"/><path class="cls-1" d="M24.25,26H15.52V15.83h8.73Zm-5.89-2.84h3V18.67h-3Z"/><path class="cls-1" d="M133.51,0H48.71A11.91,11.91,0,0,0,37.16,9.09H0V48.75H37.16a11.91,11.91,0,0,0,11.55,9.09h84.8c14.62,0,26.51-13,26.51-28.92S148.13,0,133.51,0ZM2.84,11.93h34v34h-34ZM133.51,55H48.71a9.06,9.06,0,0,1-9.05-9.05v-34a9.06,9.06,0,0,1,9.05-9.05h84.8c13.05,0,23.67,11.7,23.67,26.07S146.56,55,133.51,55Z"/><path class="cls-2" d="M75.41,14.71v7.68h7.68V20.27H90l3.58,6.89H72.72V23.69l-9,5.18,9,5.18V30.6h31l-3.91,5.89H93.41a4.14,4.14,0,1,0,0,3.44h8.28l6.19-9.32H119.7a5.17,5.17,0,1,0,0-3.44H97.49L92.12,16.83h-9V14.71Z"/></g></g></svg>
